<mxfile host="app.diagrams.net" modified="2022-04-12T15:54:13.222Z" agent="5.0 (Macintosh; Intel Mac OS X 10_15_7) AppleWebKit/605.1.15 (KHTML, like Gecko) Version/15.2 Safari/605.1.15" etag="axHiKi6Ku8lHdupTSWQ0" version="17.4.2" type="github">
  <diagram id="dQW-XpzKaDtcA8WXs1Jy" name="Page-1">
    <mxGraphModel dx="530" dy="499" grid="1" gridSize="10" guides="1" tooltips="1" connect="1" arrows="1" fold="1" page="1" pageScale="1" pageWidth="3300" pageHeight="2339" background="#ffffff" math="0" shadow="0">
      <root>
        <mxCell id="0" />
        <mxCell id="1" parent="0" />
        <mxCell id="RFXgCNUUxJCp-3ueJ_de-99" value="" style="rounded=0;whiteSpace=wrap;html=1;fontSize=30;fontColor=#333333;fillColor=#f5f5f5;strokeColor=#666666;" parent="1" vertex="1">
          <mxGeometry x="1930" y="900" width="480" height="350" as="geometry" />
        </mxCell>
        <mxCell id="O4I6JqqEiXuDZFPtQgVz-199" value="" style="rounded=0;whiteSpace=wrap;html=1;shadow=1;strokeColor=#82b366;fillColor=#d5e8d4;" parent="1" vertex="1">
          <mxGeometry x="680" y="1140" width="330" height="300" as="geometry" />
        </mxCell>
        <mxCell id="O4I6JqqEiXuDZFPtQgVz-151" value="" style="rounded=0;whiteSpace=wrap;html=1;shadow=1;strokeColor=#82b366;fillColor=#d5e8d4;" parent="1" vertex="1">
          <mxGeometry x="1020" y="1080" width="410" height="360" as="geometry" />
        </mxCell>
        <mxCell id="O4I6JqqEiXuDZFPtQgVz-198" value="" style="rounded=0;whiteSpace=wrap;html=1;shadow=1;strokeColor=#82b366;fillColor=#d5e8d4;" parent="1" vertex="1">
          <mxGeometry x="1450" y="1080" width="410" height="360" as="geometry" />
        </mxCell>
        <mxCell id="O4I6JqqEiXuDZFPtQgVz-123" value="" style="rounded=0;whiteSpace=wrap;html=1;strokeColor=#36393d;shadow=0;fillColor=#f9f7ed;" parent="1" vertex="1">
          <mxGeometry x="1585" y="620" width="235" height="290" as="geometry" />
        </mxCell>
        <mxCell id="O4I6JqqEiXuDZFPtQgVz-1" value="" style="rounded=0;whiteSpace=wrap;html=1;fillColor=#ffe6cc;strokeColor=#d79b00;" parent="1" vertex="1">
          <mxGeometry x="710" y="830" width="830" height="80" as="geometry" />
        </mxCell>
        <mxCell id="O4I6JqqEiXuDZFPtQgVz-2" value="kysdk-widget" style="rounded=1;whiteSpace=wrap;html=1;fontColor=#FF0000;" parent="1" vertex="1">
          <mxGeometry x="730" y="847.5" width="90" height="45" as="geometry" />
        </mxCell>
        <mxCell id="O4I6JqqEiXuDZFPtQgVz-3" value="&lt;span&gt;QT&lt;/span&gt;" style="rounded=1;whiteSpace=wrap;html=1;" parent="1" vertex="1">
          <mxGeometry x="1030" y="847.5" width="90" height="45" as="geometry" />
        </mxCell>
        <mxCell id="O4I6JqqEiXuDZFPtQgVz-4" value="&lt;span style=&quot;color: rgb(255 , 0 , 0)&quot;&gt;主题框架&lt;/span&gt;" style="rounded=1;whiteSpace=wrap;html=1;" parent="1" vertex="1">
          <mxGeometry x="930" y="847.5" width="90" height="45" as="geometry" />
        </mxCell>
        <mxCell id="O4I6JqqEiXuDZFPtQgVz-5" value="kysdk-system" style="rounded=1;whiteSpace=wrap;html=1;fontColor=#FF0000;" parent="1" vertex="1">
          <mxGeometry x="830" y="847.5" width="90" height="45" as="geometry" />
        </mxCell>
        <mxCell id="O4I6JqqEiXuDZFPtQgVz-6" value="GTK" style="rounded=1;whiteSpace=wrap;html=1;" parent="1" vertex="1">
          <mxGeometry x="1130" y="847.5" width="90" height="45" as="geometry" />
        </mxCell>
        <mxCell id="O4I6JqqEiXuDZFPtQgVz-7" value="&lt;span&gt;eletron&lt;/span&gt;" style="rounded=1;whiteSpace=wrap;html=1;" parent="1" vertex="1">
          <mxGeometry x="1430" y="847.5" width="90" height="45" as="geometry" />
        </mxCell>
        <mxCell id="O4I6JqqEiXuDZFPtQgVz-8" value="xatom-helper" style="rounded=1;whiteSpace=wrap;html=1;" parent="1" vertex="1">
          <mxGeometry x="1330" y="847.5" width="90" height="45" as="geometry" />
        </mxCell>
        <mxCell id="O4I6JqqEiXuDZFPtQgVz-9" value="gstreamer" style="rounded=1;whiteSpace=wrap;html=1;" parent="1" vertex="1">
          <mxGeometry x="1230" y="847.5" width="90" height="45" as="geometry" />
        </mxCell>
        <mxCell id="O4I6JqqEiXuDZFPtQgVz-10" value="&lt;h1&gt;SDK层&lt;/h1&gt;&lt;p&gt;硬件层负责提供机制&lt;/p&gt;" style="text;html=1;strokeColor=none;fillColor=none;spacing=5;spacingTop=-20;whiteSpace=wrap;overflow=hidden;rounded=0;" parent="1" vertex="1">
          <mxGeometry x="510" y="830" width="190" height="120" as="geometry" />
        </mxCell>
        <mxCell id="O4I6JqqEiXuDZFPtQgVz-11" value="" style="line;strokeWidth=2;html=1;strokeColor=#CC6600;" parent="1" vertex="1">
          <mxGeometry x="570" y="790" width="950" height="10" as="geometry" />
        </mxCell>
        <mxCell id="O4I6JqqEiXuDZFPtQgVz-12" value="" style="rounded=0;whiteSpace=wrap;html=1;fillColor=#f8cecc;strokeColor=#b85450;shadow=1;" parent="1" vertex="1">
          <mxGeometry x="710" y="450" width="830" height="300" as="geometry" />
        </mxCell>
        <mxCell id="O4I6JqqEiXuDZFPtQgVz-13" value="ukui-kwin" style="rounded=1;whiteSpace=wrap;html=1;" parent="1" vertex="1">
          <mxGeometry x="730" y="687.5" width="90" height="45" as="geometry" />
        </mxCell>
        <mxCell id="O4I6JqqEiXuDZFPtQgVz-14" value="peony-qt-desktop" style="rounded=1;whiteSpace=wrap;html=1;" parent="1" vertex="1">
          <mxGeometry x="1030" y="687.5" width="90" height="45" as="geometry" />
        </mxCell>
        <mxCell id="O4I6JqqEiXuDZFPtQgVz-15" value="ukui-panel&lt;br&gt;sni-daemon&lt;br&gt;panel-daemon&lt;br&gt;sni-xenable" style="rounded=1;whiteSpace=wrap;html=1;" parent="1" vertex="1">
          <mxGeometry x="930" y="630" width="90" height="102.5" as="geometry" />
        </mxCell>
        <mxCell id="O4I6JqqEiXuDZFPtQgVz-16" value="ukui-session-manager" style="rounded=1;whiteSpace=wrap;html=1;" parent="1" vertex="1">
          <mxGeometry x="830" y="687.5" width="90" height="45" as="geometry" />
        </mxCell>
        <mxCell id="O4I6JqqEiXuDZFPtQgVz-17" value="kylin-nm" style="rounded=1;whiteSpace=wrap;html=1;" parent="1" vertex="1">
          <mxGeometry x="1130" y="687.5" width="90" height="45" as="geometry" />
        </mxCell>
        <mxCell id="O4I6JqqEiXuDZFPtQgVz-18" value="ukui-settings-daemon" style="rounded=1;whiteSpace=wrap;html=1;" parent="1" vertex="1">
          <mxGeometry x="1430" y="687.5" width="90" height="45" as="geometry" />
        </mxCell>
        <mxCell id="O4I6JqqEiXuDZFPtQgVz-19" value="ukui-power-manager" style="rounded=1;whiteSpace=wrap;html=1;" parent="1" vertex="1">
          <mxGeometry x="1330" y="687.5" width="90" height="45" as="geometry" />
        </mxCell>
        <mxCell id="O4I6JqqEiXuDZFPtQgVz-20" value="ukui-media" style="rounded=1;whiteSpace=wrap;html=1;" parent="1" vertex="1">
          <mxGeometry x="1230" y="687.5" width="90" height="45" as="geometry" />
        </mxCell>
        <mxCell id="O4I6JqqEiXuDZFPtQgVz-21" value="&lt;h1&gt;桌面环境层&lt;/h1&gt;&lt;p&gt;登陆之后才会启动的应用&lt;/p&gt;" style="text;html=1;spacing=5;spacingTop=-20;whiteSpace=wrap;overflow=hidden;rounded=0;shadow=1;" parent="1" vertex="1">
          <mxGeometry x="510" y="530" width="190" height="120" as="geometry" />
        </mxCell>
        <mxCell id="O4I6JqqEiXuDZFPtQgVz-22" value="" style="line;strokeWidth=2;html=1;strokeColor=#CC6600;" parent="1" vertex="1">
          <mxGeometry x="570" y="430" width="950" height="10" as="geometry" />
        </mxCell>
        <mxCell id="O4I6JqqEiXuDZFPtQgVz-44" value="" style="rounded=0;whiteSpace=wrap;html=1;fillColor=#eeeeee;strokeColor=#36393d;" parent="1" vertex="1">
          <mxGeometry x="710" y="320" width="830" height="80" as="geometry" />
        </mxCell>
        <mxCell id="O4I6JqqEiXuDZFPtQgVz-45" value="麒麟天气" style="rounded=1;whiteSpace=wrap;html=1;" parent="1" vertex="1">
          <mxGeometry x="730" y="337.5" width="90" height="45" as="geometry" />
        </mxCell>
        <mxCell id="O4I6JqqEiXuDZFPtQgVz-46" value="软件商店" style="rounded=1;whiteSpace=wrap;html=1;" parent="1" vertex="1">
          <mxGeometry x="1030" y="337.5" width="90" height="45" as="geometry" />
        </mxCell>
        <mxCell id="O4I6JqqEiXuDZFPtQgVz-47" value="浏览器" style="rounded=1;whiteSpace=wrap;html=1;" parent="1" vertex="1">
          <mxGeometry x="930" y="337.5" width="90" height="45" as="geometry" />
        </mxCell>
        <mxCell id="O4I6JqqEiXuDZFPtQgVz-48" value="麒麟日历" style="rounded=1;whiteSpace=wrap;html=1;" parent="1" vertex="1">
          <mxGeometry x="830" y="337.5" width="90" height="45" as="geometry" />
        </mxCell>
        <mxCell id="O4I6JqqEiXuDZFPtQgVz-49" value="麒麟打印" style="rounded=1;whiteSpace=wrap;html=1;" parent="1" vertex="1">
          <mxGeometry x="1130" y="337.5" width="90" height="45" as="geometry" />
        </mxCell>
        <mxCell id="O4I6JqqEiXuDZFPtQgVz-50" value="iio-sensor-manager" style="rounded=1;whiteSpace=wrap;html=1;" parent="1" vertex="1">
          <mxGeometry x="1430" y="337.5" width="90" height="45" as="geometry" />
        </mxCell>
        <mxCell id="O4I6JqqEiXuDZFPtQgVz-51" value="CameraService" style="rounded=1;whiteSpace=wrap;html=1;" parent="1" vertex="1">
          <mxGeometry x="1330" y="337.5" width="90" height="45" as="geometry" />
        </mxCell>
        <mxCell id="O4I6JqqEiXuDZFPtQgVz-52" value="kylin-user-guide" style="rounded=1;whiteSpace=wrap;html=1;" parent="1" vertex="1">
          <mxGeometry x="1230" y="337.5" width="90" height="45" as="geometry" />
        </mxCell>
        <mxCell id="O4I6JqqEiXuDZFPtQgVz-53" value="&lt;h1&gt;应用层&lt;/h1&gt;&lt;p&gt;硬件层负责提供机制&lt;/p&gt;" style="text;html=1;strokeColor=none;fillColor=none;spacing=5;spacingTop=-20;whiteSpace=wrap;overflow=hidden;rounded=0;" parent="1" vertex="1">
          <mxGeometry x="510" y="310" width="190" height="120" as="geometry" />
        </mxCell>
        <mxCell id="O4I6JqqEiXuDZFPtQgVz-54" value="" style="line;strokeWidth=2;html=1;strokeColor=#CC6600;" parent="1" vertex="1">
          <mxGeometry x="570" y="280" width="950" height="10" as="geometry" />
        </mxCell>
        <mxCell id="O4I6JqqEiXuDZFPtQgVz-66" value="" style="rounded=0;whiteSpace=wrap;html=1;fillColor=#647687;fontColor=#ffffff;strokeColor=#314354;shadow=1;" parent="1" vertex="1">
          <mxGeometry x="710" y="1810" width="640" height="80" as="geometry" />
        </mxCell>
        <mxCell id="O4I6JqqEiXuDZFPtQgVz-67" value="固件" style="rounded=1;whiteSpace=wrap;html=1;" parent="1" vertex="1">
          <mxGeometry x="730" y="1827.5" width="90" height="45" as="geometry" />
        </mxCell>
        <mxCell id="O4I6JqqEiXuDZFPtQgVz-68" value="硬盘" style="rounded=1;whiteSpace=wrap;html=1;" parent="1" vertex="1">
          <mxGeometry x="1030" y="1827.5" width="90" height="45" as="geometry" />
        </mxCell>
        <mxCell id="O4I6JqqEiXuDZFPtQgVz-69" value="内存" style="rounded=1;whiteSpace=wrap;html=1;" parent="1" vertex="1">
          <mxGeometry x="930" y="1827.5" width="90" height="45" as="geometry" />
        </mxCell>
        <mxCell id="O4I6JqqEiXuDZFPtQgVz-70" value="处理器" style="rounded=1;whiteSpace=wrap;html=1;" parent="1" vertex="1">
          <mxGeometry x="830" y="1827.5" width="90" height="45" as="geometry" />
        </mxCell>
        <mxCell id="O4I6JqqEiXuDZFPtQgVz-71" value="显卡" style="rounded=1;whiteSpace=wrap;html=1;" parent="1" vertex="1">
          <mxGeometry x="1130" y="1827.5" width="90" height="45" as="geometry" />
        </mxCell>
        <mxCell id="O4I6JqqEiXuDZFPtQgVz-74" value="网卡" style="rounded=1;whiteSpace=wrap;html=1;" parent="1" vertex="1">
          <mxGeometry x="1230" y="1827.5" width="90" height="45" as="geometry" />
        </mxCell>
        <mxCell id="O4I6JqqEiXuDZFPtQgVz-75" value="&lt;h1&gt;硬件层&lt;/h1&gt;&lt;p&gt;硬件层负责提供机制&lt;/p&gt;" style="text;html=1;strokeColor=none;fillColor=none;spacing=5;spacingTop=-20;whiteSpace=wrap;overflow=hidden;rounded=0;" parent="1" vertex="1">
          <mxGeometry x="510" y="1800" width="190" height="120" as="geometry" />
        </mxCell>
        <mxCell id="O4I6JqqEiXuDZFPtQgVz-76" value="" style="line;strokeWidth=2;html=1;strokeColor=#CC6600;" parent="1" vertex="1">
          <mxGeometry x="570" y="1770" width="820" height="10" as="geometry" />
        </mxCell>
        <mxCell id="O4I6JqqEiXuDZFPtQgVz-77" value="" style="rounded=0;whiteSpace=wrap;html=1;fillColor=#e1d5e7;strokeColor=#9673a6;" parent="1" vertex="1">
          <mxGeometry x="710" y="1650" width="640" height="80" as="geometry" />
        </mxCell>
        <mxCell id="O4I6JqqEiXuDZFPtQgVz-78" value="设备管理" style="rounded=1;whiteSpace=wrap;html=1;" parent="1" vertex="1">
          <mxGeometry x="730" y="1667.5" width="90" height="45" as="geometry" />
        </mxCell>
        <mxCell id="O4I6JqqEiXuDZFPtQgVz-79" value="进程管理" style="rounded=1;whiteSpace=wrap;html=1;" parent="1" vertex="1">
          <mxGeometry x="1030" y="1667.5" width="90" height="45" as="geometry" />
        </mxCell>
        <mxCell id="O4I6JqqEiXuDZFPtQgVz-80" value="储存管理" style="rounded=1;whiteSpace=wrap;html=1;" parent="1" vertex="1">
          <mxGeometry x="930" y="1667.5" width="90" height="45" as="geometry" />
        </mxCell>
        <mxCell id="O4I6JqqEiXuDZFPtQgVz-81" value="内存管理" style="rounded=1;whiteSpace=wrap;html=1;" parent="1" vertex="1">
          <mxGeometry x="830" y="1667.5" width="90" height="45" as="geometry" />
        </mxCell>
        <mxCell id="O4I6JqqEiXuDZFPtQgVz-84" value="设备驱动" style="rounded=1;whiteSpace=wrap;html=1;" parent="1" vertex="1">
          <mxGeometry x="1230" y="1667.5" width="90" height="45" as="geometry" />
        </mxCell>
        <mxCell id="O4I6JqqEiXuDZFPtQgVz-85" value="电源管理" style="rounded=1;whiteSpace=wrap;html=1;" parent="1" vertex="1">
          <mxGeometry x="1130" y="1667.5" width="90" height="45" as="geometry" />
        </mxCell>
        <mxCell id="O4I6JqqEiXuDZFPtQgVz-86" value="&lt;h1&gt;内核层&lt;/h1&gt;&lt;p&gt;内核层负责提供接口&lt;/p&gt;" style="text;html=1;strokeColor=none;fillColor=none;spacing=5;spacingTop=-20;whiteSpace=wrap;overflow=hidden;rounded=0;" parent="1" vertex="1">
          <mxGeometry x="510" y="1650" width="190" height="120" as="geometry" />
        </mxCell>
        <mxCell id="O4I6JqqEiXuDZFPtQgVz-87" value="" style="line;strokeWidth=2;html=1;strokeColor=#CC6600;" parent="1" vertex="1">
          <mxGeometry x="570" y="1610" width="1250" height="10" as="geometry" />
        </mxCell>
        <mxCell id="O4I6JqqEiXuDZFPtQgVz-88" value="" style="rounded=0;whiteSpace=wrap;html=1;fillColor=#fff2cc;strokeColor=#d6b656;shadow=1;" parent="1" vertex="1">
          <mxGeometry x="1320" y="1480" width="540" height="90" as="geometry" />
        </mxCell>
        <mxCell id="O4I6JqqEiXuDZFPtQgVz-89" value="glibc" style="rounded=1;whiteSpace=wrap;html=1;" parent="1" vertex="1">
          <mxGeometry x="1740" y="1507.5" width="90" height="45" as="geometry" />
        </mxCell>
        <mxCell id="O4I6JqqEiXuDZFPtQgVz-91" value="mesa" style="rounded=1;whiteSpace=wrap;html=1;" parent="1" vertex="1">
          <mxGeometry x="1340" y="1507.5" width="90" height="45" as="geometry" />
        </mxCell>
        <mxCell id="O4I6JqqEiXuDZFPtQgVz-92" value="libstdcc++" style="rounded=1;whiteSpace=wrap;html=1;" parent="1" vertex="1">
          <mxGeometry x="1640" y="1507.5" width="90" height="45" as="geometry" />
        </mxCell>
        <mxCell id="O4I6JqqEiXuDZFPtQgVz-94" value="bash" style="rounded=1;whiteSpace=wrap;html=1;" parent="1" vertex="1">
          <mxGeometry x="1540" y="1507.5" width="90" height="45" as="geometry" />
        </mxCell>
        <mxCell id="O4I6JqqEiXuDZFPtQgVz-95" value="python" style="rounded=1;whiteSpace=wrap;html=1;" parent="1" vertex="1">
          <mxGeometry x="1440" y="1507.5" width="90" height="45" as="geometry" />
        </mxCell>
        <mxCell id="O4I6JqqEiXuDZFPtQgVz-98" value="" style="line;strokeWidth=2;html=1;strokeColor=#CC6600;" parent="1" vertex="1">
          <mxGeometry x="570" y="1450" width="1250" height="10" as="geometry" />
        </mxCell>
        <mxCell id="O4I6JqqEiXuDZFPtQgVz-108" value="&lt;h1&gt;服务层&lt;/h1&gt;&lt;p&gt;硬件层负责提供机制&lt;/p&gt;" style="text;html=1;spacing=5;spacingTop=-20;whiteSpace=wrap;overflow=hidden;rounded=0;shadow=1;" parent="1" vertex="1">
          <mxGeometry x="510" y="1062.5" width="190" height="120" as="geometry" />
        </mxCell>
        <mxCell id="O4I6JqqEiXuDZFPtQgVz-109" value="" style="line;strokeWidth=2;html=1;strokeColor=#CC6600;" parent="1" vertex="1">
          <mxGeometry x="570" y="960" width="1230" height="10" as="geometry" />
        </mxCell>
        <mxCell id="O4I6JqqEiXuDZFPtQgVz-111" value="&lt;h1&gt;基础层+协议层&lt;/h1&gt;&lt;p&gt;Linux的协议规范了桌面组件的运行方式&lt;/p&gt;" style="text;html=1;strokeColor=none;fillColor=none;spacing=5;spacingTop=-20;whiteSpace=wrap;overflow=hidden;rounded=0;" parent="1" vertex="1">
          <mxGeometry x="510" y="1480" width="180" height="120" as="geometry" />
        </mxCell>
        <mxCell id="O4I6JqqEiXuDZFPtQgVz-121" value="&lt;h1&gt;安卓兼容&lt;/h1&gt;&lt;p&gt;所有迁移的安卓兼容应用的基础&lt;/p&gt;" style="text;html=1;strokeColor=none;fillColor=none;spacing=5;spacingTop=-20;whiteSpace=wrap;overflow=hidden;rounded=0;" parent="1" vertex="1">
          <mxGeometry x="1595" y="809" width="150" height="120" as="geometry" />
        </mxCell>
        <mxCell id="O4I6JqqEiXuDZFPtQgVz-125" value="" style="rounded=0;whiteSpace=wrap;html=1;fillColor=#fff2cc;strokeColor=#d6b656;shadow=1;" parent="1" vertex="1">
          <mxGeometry x="710" y="1480" width="610" height="90" as="geometry" />
        </mxCell>
        <mxCell id="O4I6JqqEiXuDZFPtQgVz-126" value="freedesktop" style="rounded=1;whiteSpace=wrap;html=1;" parent="1" vertex="1">
          <mxGeometry x="720" y="1507.5" width="90" height="45" as="geometry" />
        </mxCell>
        <mxCell id="O4I6JqqEiXuDZFPtQgVz-127" value="statusnotifier" style="rounded=1;whiteSpace=wrap;html=1;" parent="1" vertex="1">
          <mxGeometry x="820" y="1507.5" width="90" height="45" as="geometry" />
        </mxCell>
        <mxCell id="O4I6JqqEiXuDZFPtQgVz-128" value="desktop" style="rounded=1;whiteSpace=wrap;html=1;" parent="1" vertex="1">
          <mxGeometry x="920" y="1507.5" width="90" height="45" as="geometry" />
        </mxCell>
        <mxCell id="O4I6JqqEiXuDZFPtQgVz-129" value="wm-spec" style="rounded=1;whiteSpace=wrap;html=1;" parent="1" vertex="1">
          <mxGeometry x="1020" y="1507.5" width="90" height="45" as="geometry" />
        </mxCell>
        <mxCell id="O4I6JqqEiXuDZFPtQgVz-130" value="icon-theme" style="rounded=1;whiteSpace=wrap;html=1;" parent="1" vertex="1">
          <mxGeometry x="1120" y="1507.5" width="90" height="45" as="geometry" />
        </mxCell>
        <mxCell id="O4I6JqqEiXuDZFPtQgVz-131" value="icon-theme" style="rounded=1;whiteSpace=wrap;html=1;" parent="1" vertex="1">
          <mxGeometry x="1220" y="1507.5" width="90" height="45" as="geometry" />
        </mxCell>
        <mxCell id="O4I6JqqEiXuDZFPtQgVz-133" value="kylin-kmre-daemon" style="rounded=1;whiteSpace=wrap;html=1;shadow=0;strokeColor=#000000;" parent="1" vertex="1">
          <mxGeometry x="1605" y="744" width="120" height="60" as="geometry" />
        </mxCell>
        <mxCell id="O4I6JqqEiXuDZFPtQgVz-134" value="kylin-kmre-manager" style="rounded=1;whiteSpace=wrap;html=1;shadow=0;strokeColor=#000000;" parent="1" vertex="1">
          <mxGeometry x="1605" y="666.5" width="120" height="60" as="geometry" />
        </mxCell>
        <mxCell id="O4I6JqqEiXuDZFPtQgVz-136" value="" style="line;strokeWidth=2;direction=south;html=1;rounded=0;shadow=0;strokeColor=#CC6600;" parent="1" vertex="1">
          <mxGeometry x="1540" y="360" width="45" height="550" as="geometry" />
        </mxCell>
        <mxCell id="O4I6JqqEiXuDZFPtQgVz-137" value="开始菜单" style="rounded=1;whiteSpace=wrap;html=1;" parent="1" vertex="1">
          <mxGeometry x="730" y="460" width="90" height="45" as="geometry" />
        </mxCell>
        <mxCell id="O4I6JqqEiXuDZFPtQgVz-138" value="搜索" style="rounded=1;whiteSpace=wrap;html=1;" parent="1" vertex="1">
          <mxGeometry x="830" y="460" width="90" height="45" as="geometry" />
        </mxCell>
        <mxCell id="O4I6JqqEiXuDZFPtQgVz-139" value="" style="line;strokeWidth=2;html=1;rounded=0;shadow=0;strokeColor=#006600;" parent="1" vertex="1">
          <mxGeometry x="740" y="510" width="750" height="10" as="geometry" />
        </mxCell>
        <mxCell id="O4I6JqqEiXuDZFPtQgVz-140" value="日历" style="rounded=1;whiteSpace=wrap;html=1;" parent="1" vertex="1">
          <mxGeometry x="930" y="460" width="90" height="45" as="geometry" />
        </mxCell>
        <mxCell id="O4I6JqqEiXuDZFPtQgVz-141" value="用户手册" style="rounded=1;whiteSpace=wrap;html=1;" parent="1" vertex="1">
          <mxGeometry x="1030" y="460" width="90" height="45" as="geometry" />
        </mxCell>
        <mxCell id="O4I6JqqEiXuDZFPtQgVz-142" value="kylin-state-manager" style="rounded=1;whiteSpace=wrap;html=1;" parent="1" vertex="1">
          <mxGeometry x="730" y="630" width="90" height="45" as="geometry" />
        </mxCell>
        <mxCell id="O4I6JqqEiXuDZFPtQgVz-143" value="ukui-sidebar" style="rounded=1;whiteSpace=wrap;html=1;" parent="1" vertex="1">
          <mxGeometry x="830" y="630" width="90" height="45" as="geometry" />
        </mxCell>
        <mxCell id="O4I6JqqEiXuDZFPtQgVz-144" value="安全" style="rounded=1;whiteSpace=wrap;html=1;" parent="1" vertex="1">
          <mxGeometry x="1130" y="460" width="90" height="45" as="geometry" />
        </mxCell>
        <mxCell id="O4I6JqqEiXuDZFPtQgVz-145" value="print-applet" style="rounded=1;whiteSpace=wrap;html=1;" parent="1" vertex="1">
          <mxGeometry x="1230" y="460" width="90" height="45" as="geometry" />
        </mxCell>
        <mxCell id="O4I6JqqEiXuDZFPtQgVz-146" value="tobii-autostart" style="rounded=1;whiteSpace=wrap;html=1;" parent="1" vertex="1">
          <mxGeometry x="1330" y="460" width="90" height="45" as="geometry" />
        </mxCell>
        <mxCell id="O4I6JqqEiXuDZFPtQgVz-147" value="" style="rounded=1;whiteSpace=wrap;html=1;" parent="1" vertex="1">
          <mxGeometry x="1430" y="460" width="90" height="45" as="geometry" />
        </mxCell>
        <mxCell id="O4I6JqqEiXuDZFPtQgVz-148" value="ukui-bluetooth" style="rounded=1;whiteSpace=wrap;html=1;" parent="1" vertex="1">
          <mxGeometry x="1030" y="630" width="90" height="45" as="geometry" />
        </mxCell>
        <mxCell id="O4I6JqqEiXuDZFPtQgVz-150" value="&lt;h1&gt;硬件规范&lt;/h1&gt;&lt;p&gt;acpi等硬件规范&lt;/p&gt;" style="text;html=1;strokeColor=none;fillColor=none;spacing=5;spacingTop=-20;whiteSpace=wrap;overflow=hidden;rounded=0;" parent="1" vertex="1">
          <mxGeometry x="1720" y="1630" width="190" height="120" as="geometry" />
        </mxCell>
        <mxCell id="O4I6JqqEiXuDZFPtQgVz-152" value="plasaudio" style="rounded=1;whiteSpace=wrap;html=1;" parent="1" vertex="1">
          <mxGeometry x="1030" y="1090" width="90" height="45" as="geometry" />
        </mxCell>
        <mxCell id="O4I6JqqEiXuDZFPtQgVz-155" value="network-manager" style="rounded=1;whiteSpace=wrap;html=1;" parent="1" vertex="1">
          <mxGeometry x="1130" y="1090" width="90" height="45" as="geometry" />
        </mxCell>
        <mxCell id="O4I6JqqEiXuDZFPtQgVz-157" value="upower" style="rounded=1;whiteSpace=wrap;html=1;" parent="1" vertex="1">
          <mxGeometry x="1330" y="1090" width="90" height="45" as="geometry" />
        </mxCell>
        <mxCell id="O4I6JqqEiXuDZFPtQgVz-158" value="acpid" style="rounded=1;whiteSpace=wrap;html=1;" parent="1" vertex="1">
          <mxGeometry x="1230" y="1090" width="90" height="45" as="geometry" />
        </mxCell>
        <mxCell id="O4I6JqqEiXuDZFPtQgVz-159" value="ipsec" style="rounded=1;whiteSpace=wrap;html=1;" parent="1" vertex="1">
          <mxGeometry x="1030" y="1152.5" width="90" height="45" as="geometry" />
        </mxCell>
        <mxCell id="O4I6JqqEiXuDZFPtQgVz-160" value="x11" style="rounded=1;whiteSpace=wrap;html=1;" parent="1" vertex="1">
          <mxGeometry x="910" y="1152.5" width="90" height="45" as="geometry" />
        </mxCell>
        <mxCell id="O4I6JqqEiXuDZFPtQgVz-161" value="XOrg" style="rounded=1;whiteSpace=wrap;html=1;" parent="1" vertex="1">
          <mxGeometry x="810" y="1152.5" width="90" height="45" as="geometry" />
        </mxCell>
        <mxCell id="O4I6JqqEiXuDZFPtQgVz-162" value="networking" style="rounded=1;whiteSpace=wrap;html=1;" parent="1" vertex="1">
          <mxGeometry x="1130" y="1152.5" width="90" height="45" as="geometry" />
        </mxCell>
        <mxCell id="O4I6JqqEiXuDZFPtQgVz-163" value="X Server" style="rounded=1;whiteSpace=wrap;html=1;" parent="1" vertex="1">
          <mxGeometry x="700" y="1152.5" width="90" height="45" as="geometry" />
        </mxCell>
        <mxCell id="O4I6JqqEiXuDZFPtQgVz-164" value="bluetooth" style="rounded=1;whiteSpace=wrap;html=1;" parent="1" vertex="1">
          <mxGeometry x="1330" y="1152.5" width="90" height="45" as="geometry" />
        </mxCell>
        <mxCell id="O4I6JqqEiXuDZFPtQgVz-165" value="bluez" style="rounded=1;whiteSpace=wrap;html=1;" parent="1" vertex="1">
          <mxGeometry x="1230" y="1152.5" width="90" height="45" as="geometry" />
        </mxCell>
        <mxCell id="O4I6JqqEiXuDZFPtQgVz-166" value="smbd" style="rounded=1;whiteSpace=wrap;html=1;" parent="1" vertex="1">
          <mxGeometry x="1030" y="1210" width="90" height="45" as="geometry" />
        </mxCell>
        <mxCell id="O4I6JqqEiXuDZFPtQgVz-167" value="wayland" style="rounded=1;whiteSpace=wrap;html=1;" parent="1" vertex="1">
          <mxGeometry x="910" y="1210" width="90" height="45" as="geometry" />
        </mxCell>
        <mxCell id="O4I6JqqEiXuDZFPtQgVz-168" value="lightdm" style="rounded=1;whiteSpace=wrap;html=1;" parent="1" vertex="1">
          <mxGeometry x="810" y="1210" width="90" height="45" as="geometry" />
        </mxCell>
        <mxCell id="O4I6JqqEiXuDZFPtQgVz-169" value="avahi-daemon" style="rounded=1;whiteSpace=wrap;html=1;" parent="1" vertex="1">
          <mxGeometry x="1130" y="1210" width="90" height="45" as="geometry" />
        </mxCell>
        <mxCell id="O4I6JqqEiXuDZFPtQgVz-170" value="gdm" style="rounded=1;whiteSpace=wrap;html=1;" parent="1" vertex="1">
          <mxGeometry x="700" y="1210" width="90" height="45" as="geometry" />
        </mxCell>
        <mxCell id="O4I6JqqEiXuDZFPtQgVz-171" value="upower" style="rounded=1;whiteSpace=wrap;html=1;" parent="1" vertex="1">
          <mxGeometry x="1330" y="1210" width="90" height="45" as="geometry" />
        </mxCell>
        <mxCell id="O4I6JqqEiXuDZFPtQgVz-172" value="plasaudio" style="rounded=1;whiteSpace=wrap;html=1;" parent="1" vertex="1">
          <mxGeometry x="1230" y="1210" width="90" height="45" as="geometry" />
        </mxCell>
        <mxCell id="O4I6JqqEiXuDZFPtQgVz-173" value="锁屏" style="rounded=1;whiteSpace=wrap;html=1;" parent="1" vertex="1">
          <mxGeometry x="1760" y="1090" width="90" height="45" as="geometry" />
        </mxCell>
        <mxCell id="O4I6JqqEiXuDZFPtQgVz-174" value="session" style="rounded=1;whiteSpace=wrap;html=1;" parent="1" vertex="1">
          <mxGeometry x="1660" y="1090" width="90" height="45" as="geometry" />
        </mxCell>
        <mxCell id="O4I6JqqEiXuDZFPtQgVz-175" value="电源管理" style="rounded=1;whiteSpace=wrap;html=1;" parent="1" vertex="1">
          <mxGeometry x="1560" y="1090" width="90" height="45" as="geometry" />
        </mxCell>
        <mxCell id="O4I6JqqEiXuDZFPtQgVz-177" value="软件商店" style="rounded=1;whiteSpace=wrap;html=1;" parent="1" vertex="1">
          <mxGeometry x="1460" y="1090" width="90" height="45" as="geometry" />
        </mxCell>
        <mxCell id="O4I6JqqEiXuDZFPtQgVz-188" value="摄像头" style="rounded=1;whiteSpace=wrap;html=1;" parent="1" vertex="1">
          <mxGeometry x="1760" y="1152.5" width="90" height="45" as="geometry" />
        </mxCell>
        <mxCell id="O4I6JqqEiXuDZFPtQgVz-189" value="升级管理器" style="rounded=1;whiteSpace=wrap;html=1;" parent="1" vertex="1">
          <mxGeometry x="1660" y="1152.5" width="90" height="45" as="geometry" />
        </mxCell>
        <mxCell id="O4I6JqqEiXuDZFPtQgVz-190" value="dbus" style="rounded=1;whiteSpace=wrap;html=1;" parent="1" vertex="1">
          <mxGeometry x="1560" y="1152.5" width="90" height="45" as="geometry" />
        </mxCell>
        <mxCell id="O4I6JqqEiXuDZFPtQgVz-191" value="蓝牙" style="rounded=1;whiteSpace=wrap;html=1;" parent="1" vertex="1">
          <mxGeometry x="1460" y="1152.5" width="90" height="45" as="geometry" />
        </mxCell>
        <mxCell id="O4I6JqqEiXuDZFPtQgVz-192" value="用户手册后台" style="rounded=1;whiteSpace=wrap;html=1;" parent="1" vertex="1">
          <mxGeometry x="1760" y="1210" width="90" height="45" as="geometry" />
        </mxCell>
        <mxCell id="O4I6JqqEiXuDZFPtQgVz-193" value="u盘管理工具后台" style="rounded=1;whiteSpace=wrap;html=1;" parent="1" vertex="1">
          <mxGeometry x="1660" y="1210" width="90" height="45" as="geometry" />
        </mxCell>
        <mxCell id="O4I6JqqEiXuDZFPtQgVz-194" value="usd后台" style="rounded=1;whiteSpace=wrap;html=1;" parent="1" vertex="1">
          <mxGeometry x="1560" y="1210" width="90" height="45" as="geometry" />
        </mxCell>
        <mxCell id="O4I6JqqEiXuDZFPtQgVz-195" value="控制面板后台" style="rounded=1;whiteSpace=wrap;html=1;" parent="1" vertex="1">
          <mxGeometry x="1460" y="1210" width="90" height="45" as="geometry" />
        </mxCell>
        <mxCell id="O4I6JqqEiXuDZFPtQgVz-203" value="&lt;h1&gt;&lt;font color=&quot;#ff8000&quot;&gt;资源管理器 Resource Manager&lt;/font&gt;&lt;/h1&gt;&lt;p&gt;&lt;/p&gt;&lt;span style=&quot;color: rgb(64 , 72 , 91) ; font-family: , , &amp;#34;segoe ui&amp;#34; , &amp;#34;helvetica&amp;#34; , &amp;#34;arial&amp;#34; , &amp;#34;apple color emoji&amp;#34; , &amp;#34;segoe ui emoji&amp;#34; , &amp;#34;segoe ui symbol&amp;#34; , &amp;#34;liberation sans&amp;#34; , &amp;#34;pingfang sc&amp;#34; , &amp;#34;microsoft yahei&amp;#34; , &amp;#34;hiragino sans gb&amp;#34; , &amp;#34;wenquanyi micro hei&amp;#34; , &amp;#34;wenquanyi zen hei&amp;#34; , &amp;#34;st heiti&amp;#34; , &amp;#34;simhei&amp;#34; , &amp;#34;simsun&amp;#34; , &amp;#34;wenquanyi zen hei sharp&amp;#34; , sans-serif ; background-color: rgb(255 , 255 , 255)&quot;&gt;&lt;font style=&quot;font-size: 12px&quot;&gt;主要由一系列的底层守护程序来监控硬件的状态，并汇报给上层的桌面环境和应用进一步操作，比如常见的就有网络、电源、磁盘、蓝牙、声音、键盘、打印等。&lt;/font&gt;&lt;/span&gt;" style="text;html=1;strokeColor=none;fillColor=none;spacing=5;spacingTop=-20;whiteSpace=wrap;overflow=hidden;rounded=0;shadow=1;fontColor=#FF0000;" parent="1" vertex="1">
          <mxGeometry x="1030" y="980" width="410" height="120" as="geometry" />
        </mxCell>
        <mxCell id="O4I6JqqEiXuDZFPtQgVz-204" value="&lt;h1&gt;&lt;font color=&quot;#ff8000&quot;&gt;显示服务层&lt;/font&gt;&lt;/h1&gt;&lt;p&gt;&lt;/p&gt;&lt;span style=&quot;color: rgb(64 , 72 , 91) ; font-family: , , &amp;#34;segoe ui&amp;#34; , &amp;#34;helvetica&amp;#34; , &amp;#34;arial&amp;#34; , &amp;#34;apple color emoji&amp;#34; , &amp;#34;segoe ui emoji&amp;#34; , &amp;#34;segoe ui symbol&amp;#34; , &amp;#34;liberation sans&amp;#34; , &amp;#34;pingfang sc&amp;#34; , &amp;#34;microsoft yahei&amp;#34; , &amp;#34;hiragino sans gb&amp;#34; , &amp;#34;wenquanyi micro hei&amp;#34; , &amp;#34;wenquanyi zen hei&amp;#34; , &amp;#34;st heiti&amp;#34; , &amp;#34;simhei&amp;#34; , &amp;#34;simsun&amp;#34; , &amp;#34;wenquanyi zen hei sharp&amp;#34; , sans-serif ; background-color: rgb(255 , 255 , 255)&quot;&gt;&lt;font style=&quot;font-size: 12px&quot;&gt;从内核引导到plymouth后，见到登录界面输入密码的时候，这时候X Server已经起来了， X Server是Linux系统中掌握着绘制图形界面生杀大权，所有程序要绘制图形的时候都要发送消息到 X Server, X Server才会给你画出来。同时X Server也是事件输入（键盘鼠标）输出（显示器）的抽象层，开发者可以不用考虑底层驱动和显卡驱动细节，直接就可以使用X11/XCB/Gtk+/Qt等API进行应用开发。&lt;/font&gt;&lt;/span&gt;" style="text;html=1;strokeColor=none;fillColor=none;spacing=5;spacingTop=-20;whiteSpace=wrap;overflow=hidden;rounded=0;shadow=1;fontColor=#FF0000;" parent="1" vertex="1">
          <mxGeometry x="670" y="970" width="350" height="160" as="geometry" />
        </mxCell>
        <mxCell id="O4I6JqqEiXuDZFPtQgVz-206" value="&lt;h1&gt;&lt;font color=&quot;#ff8000&quot;&gt;&lt;span&gt;服务管理&lt;/span&gt;&lt;/font&gt;&lt;/h1&gt;&lt;p&gt;&lt;/p&gt;&lt;font color=&quot;#40485b&quot;&gt;&lt;span style=&quot;background-color: rgb(255 , 255 , 255)&quot;&gt;通过systemd和dbus来管理的后台服务&lt;/span&gt;&lt;/font&gt;" style="text;html=1;strokeColor=none;fillColor=none;spacing=5;spacingTop=-20;whiteSpace=wrap;overflow=hidden;rounded=0;shadow=1;fontColor=#FF0000;" parent="1" vertex="1">
          <mxGeometry x="1460" y="980" width="310" height="120" as="geometry" />
        </mxCell>
        <mxCell id="O4I6JqqEiXuDZFPtQgVz-207" value="xl2tpd" style="rounded=1;whiteSpace=wrap;html=1;" parent="1" vertex="1">
          <mxGeometry x="1030" y="1265" width="90" height="45" as="geometry" />
        </mxCell>
        <mxCell id="O4I6JqqEiXuDZFPtQgVz-208" value="dnsmasq" style="rounded=1;whiteSpace=wrap;html=1;" parent="1" vertex="1">
          <mxGeometry x="1130" y="1265" width="90" height="45" as="geometry" />
        </mxCell>
        <mxCell id="O4I6JqqEiXuDZFPtQgVz-209" value="cron" style="rounded=1;whiteSpace=wrap;html=1;" parent="1" vertex="1">
          <mxGeometry x="1330" y="1265" width="90" height="45" as="geometry" />
        </mxCell>
        <mxCell id="O4I6JqqEiXuDZFPtQgVz-210" value="grub-common" style="rounded=1;whiteSpace=wrap;html=1;" parent="1" vertex="1">
          <mxGeometry x="1230" y="1265" width="90" height="45" as="geometry" />
        </mxCell>
        <mxCell id="O4I6JqqEiXuDZFPtQgVz-211" value="xrdp" style="rounded=1;whiteSpace=wrap;html=1;" parent="1" vertex="1">
          <mxGeometry x="1030" y="1327.5" width="90" height="45" as="geometry" />
        </mxCell>
        <mxCell id="O4I6JqqEiXuDZFPtQgVz-212" value="nmbd" style="rounded=1;whiteSpace=wrap;html=1;" parent="1" vertex="1">
          <mxGeometry x="1130" y="1327.5" width="90" height="45" as="geometry" />
        </mxCell>
        <mxCell id="O4I6JqqEiXuDZFPtQgVz-213" value="rsyslog" style="rounded=1;whiteSpace=wrap;html=1;" parent="1" vertex="1">
          <mxGeometry x="1330" y="1327.5" width="90" height="45" as="geometry" />
        </mxCell>
        <mxCell id="O4I6JqqEiXuDZFPtQgVz-214" value="lm-sensor" style="rounded=1;whiteSpace=wrap;html=1;" parent="1" vertex="1">
          <mxGeometry x="1230" y="1327.5" width="90" height="45" as="geometry" />
        </mxCell>
        <mxCell id="O4I6JqqEiXuDZFPtQgVz-215" value="docker" style="rounded=1;whiteSpace=wrap;html=1;" parent="1" vertex="1">
          <mxGeometry x="1030" y="1385" width="90" height="45" as="geometry" />
        </mxCell>
        <mxCell id="O4I6JqqEiXuDZFPtQgVz-216" value="ssh" style="rounded=1;whiteSpace=wrap;html=1;" parent="1" vertex="1">
          <mxGeometry x="1130" y="1385" width="90" height="45" as="geometry" />
        </mxCell>
        <mxCell id="O4I6JqqEiXuDZFPtQgVz-217" value="upower" style="rounded=1;whiteSpace=wrap;html=1;" parent="1" vertex="1">
          <mxGeometry x="1330" y="1385" width="90" height="45" as="geometry" />
        </mxCell>
        <mxCell id="O4I6JqqEiXuDZFPtQgVz-218" value="procs" style="rounded=1;whiteSpace=wrap;html=1;" parent="1" vertex="1">
          <mxGeometry x="1230" y="1385" width="90" height="45" as="geometry" />
        </mxCell>
        <mxCell id="O4I6JqqEiXuDZFPtQgVz-219" value="&lt;ul&gt;&lt;li style=&quot;box-sizing: border-box ; outline: 0px ; margin: 8px 0px 0px 32px ; padding: 0px ; list-style: disc ; overflow-wrap: break-word&quot;&gt;系统电源管理（System power management）&lt;/li&gt;&lt;li style=&quot;box-sizing: border-box ; outline: 0px ; margin: 8px 0px 0px 32px ; padding: 0px ; list-style: disc ; overflow-wrap: break-word&quot;&gt;设备电源管理（Device power management）&lt;/li&gt;&lt;li style=&quot;box-sizing: border-box ; outline: 0px ; margin: 8px 0px 0px 32px ; padding: 0px ; list-style: disc ; overflow-wrap: break-word&quot;&gt;处理器电源管理（Processor power management）&lt;/li&gt;&lt;li style=&quot;box-sizing: border-box ; outline: 0px ; margin: 8px 0px 0px 32px ; padding: 0px ; list-style: disc ; overflow-wrap: break-word&quot;&gt;电池管理（Battery management）&lt;br&gt;&lt;/li&gt;&lt;li style=&quot;box-sizing: border-box ; outline: 0px ; margin: 8px 0px 0px 32px ; padding: 0px ; list-style: disc ; overflow-wrap: break-word&quot;&gt;温度管理（Thermal management）&lt;/li&gt;&lt;/ul&gt;" style="text;strokeColor=none;fillColor=none;html=1;whiteSpace=wrap;verticalAlign=middle;overflow=hidden;rounded=0;shadow=1;fontSize=12;fontColor=#FF8000;" parent="1" vertex="1">
          <mxGeometry x="1640" y="1770" width="500" height="120" as="geometry" />
        </mxCell>
        <mxCell id="O4I6JqqEiXuDZFPtQgVz-220" value="" style="shape=image;imageAspect=0;aspect=fixed;verticalLabelPosition=bottom;verticalAlign=top;rounded=0;shadow=1;fontSize=12;fontColor=#FF8000;strokeColor=#006600;image=data:image/jpeg,/9j/4AAQSkZJRgABAQAAAQABAAD/2wBDAAoHBwgHBgoICAgLCgoLDhgQDg0NDh0VFhEYIx8lJCIfIiEmKzcvJik0KSEiMEExNDk7Pj4+JS5ESUM8SDc9Pjv/2wBDAQoLCw4NDhwQEBw7KCIoOzs7Ozs7Ozs7Ozs7Ozs7Ozs7Ozs7Ozs7Ozs7Ozs7Ozs7Ozs7Ozs7Ozs7Ozs7Ozs7Ozv/wAARCAHSAc8DASIAAhEBAxEB/8QAHAABAAIDAQEBAAAAAAAAAAAAAAUGAwQHAggB/8QAWBAAAQMDAgIDCA4FCAgFBAMAAQIDBAAFERIhBjETQVEHFBYiU2FxkxUXIzI2UlRVgZGSlNHSQnJzsrM1YnShoqSxwSQzNFZjg+HiJXWCwtM3lcPwQ2Tx/8QAGwEBAAMBAQEBAAAAAAAAAAAAAAECAwQFBgf/xABDEQACAQICBQcJBQgCAgMAAAAAAQIDEQQhEjFBUWETFFNxkaHwBRYiUoGxwdHhBjIzQpIjNGJyk6LS8RU1o8JDgrL/2gAMAwEAAhEDEQA/AOzUpSgFKUoBSlKAUpSgFKUoBSlKAUpSgFKUoBSlKAUpSgFKUoBSlKAUpSgFKUoBSlKAUpSgFKUoBSlKAUpSgFKUoBSlKAUpSgFKUoBSlKAUpSgFKUoBSlKAUpSgFKUoBSlKAUpSgFKUoBSlKAUpSgFKUoBWu9OYZeLKg6pYSFEIZWvAJIG4B7DWxWq3/Kj/AOwa/ecoD89kWPJyfurv5aeyLHk5P3V38tbdKA1PZFjycn7q7+Wnsix5OT91d/LW3SgNT2RY8nJ+6u/lp7IseTk/dXfy1t0oDU9kWPJyfurv5aeyLHk5P3V38tbdKA1PZFjycn7q7+Wnsix5OT91d/LW3SgNT2RY8nJ+6u/lp7IseTk/dXfy1t0oDTVdIyEFa0yEpSMkmK4AB9mtytW5/wAly/2C/wB01tUApSlAKUpQClKUApSlAKUpQClKUApSlAKUpQClKUApSlAKUpQClKUApSlAKUpQClKUApSlAKUpQClKUApSlAKUpQClKUArVb/lR/8AYNfvOVtVqt/yo/8AsGv3nKA2qp1p4tdn3a6M9+MONLaddgIQUlTYaUUK1Y7TpWM9RPZVsktKfiusodU0pxBSHE80EjGR6KhjwhbEMQURGkxFwvFS602kKcToKCFHG+Qc+kA1AKtbeJ7i7GjvROIV3ZxyE47KaVEQkRSGioK1JSB78BODnOfNX7H4nuHeq3YPEK7ufY599/VEQkRVpb1IOpKQPfbYOc/QavCbW2mwi0dIroxF7219eNOnPppItjcixuWlTig25GMcrHMAp059NS9oWw1rvPkxLPEkMuaXHJURtR0g5St5CVD6Qo1HRXOIbyl66QrmzHaRKcaYhLZBQ4ltwoOteCoElJPi8ttjW03w7MXHTHn3x+a0h1l1tKmG0aS24lY96BnOkCvEjhJLz0htu7TWLfLcLsiC3o0LUTlQCinUkKO5AO+TyzU7RsNSbxSqPxszb++2Ew0qRFeZJTrLziSpKh14GEJ/5nmr02xfPC9UFXEklUZEdMro+9mN8uKGjOjOMDnz89bb3B9tft8thxIMmU6t7vzo09K2sq1JKTjbThIHmSKkk21Cbwq5lxRcVGTHKcbYCirP9dQgVuBdLzfEwoDFwENxUZUmTKSylayOkKEpSCNI96ckg8h25rWncRcQwXWoSFNy5UO4lqRoaCe+2RHL2w/RXjbbrT2HFTZ4US1Hid43KTDlxEKbRJbCFFSFK1FKkqBBGdx2H6ayROGI8RyK93y+8+xJXKdedIKn3FNlslWAAAEkAAAYCQKAiZl/uMpqc7aXnHIwejlLsaOHnGmVthSlJR+kckbHOMnY4xUrwrcV3GA+pdzbuKWnihDvRFp0DAOlxGBpUCTyAyMGtdPBcWOZi4U6VDcfliW0poj3BekpIAIIKTlXikY36tqk7RaPYwSHHZj0yVKWFvPuhKSogBIACQAAAKAz3P8AkuX+wX+6a2q1bn/Jcv8AYL/dNe50lMKBIlL96w0pw+gAn/KpSbdkDPSuS2t+DamrRPsTgmXREF6VdEsPlxKh0RVpcAJAOvAA51JM8WXoxWEu3WMjvqZGaTJWGT0WpKlOJwhRGMBOCcHxt69afkqafoSy45PW1qz6+ozVRHSKVzR7jG+COhhua2AO+VtTyhpKZIbWEo9+pKcHO+nJxjAreXxHfu/e+O+GwwLq3DERDKVawGgp3xuexCsYrN+TKy1tbe72eNtidNF9pXLU8R3KU/Gu6prE9cS1P3LvZpAAYWoBKUHG5ABPPfY1JQuIL/LeiwW7iypcmaECRpZWoIDJW4CltSk7HTjfO4zUz8l1Iq+kstevZr2bs/cNNHQKVQrLd7reLtw+h+7KQFR5El1CUJQJCUuFCMjHWk5IHZmr7XJiMPKhJRk7v6tfAsncUpSuYkUpSgFKUoBSlKAUpSgFKUoBSlKAUpSgFKUoBSlKAUpSgFKUoBSlKAUpSgFKUoBSlKAUpSgFarf8qP8A7Br95ytqtRxqUiYt9hLS0rbSghaykggqPUD8agNulamu4+RjetV+Wmu4+RjetV+WgNulamu4+RjetV+Wmu4+RjetV+WgNulamu4+RjetV+Wmu4+RjetV+WgNulahcuAIBaijPL3ZW/8AZpruPkY3rVfloDbpWpruPkY3rVflpruPkY3rVfloDbpWpruPkY3rVflpruPkY3rVfloD9uf8ly/2C/3TWwtCHW1NuIStChhSVDII7CK0pDc+TGdYU3GSHUFBUHFHGRjONNa/E7lxFkdYtTSlzJRDDawDhrVsVqPUEjJz24q9ODnNRTtcGWyyLNLYecswjFpDpadLDYSNY5g7DPOj1gtr8iK6qMhKYpcUhpKQGyVp0qJTjB2z9dc9XbrlZYqrJLiEok3OKpKbeFJDjaG8r0EnJIDQzvnJ89ZVR3WZFugyrdPXBclypqYDZJdbY0hCEkZzgqUTpz1+mvZeCtJyp1Nd7cVbrWetfEy0t6L7Lk2iO4IslLOqMz3wlvodXRoBxqAA23223rcTGjeKtMdoEKLiToAIUeavSc865vDsV97wfYlRZIdWmHDQokqKGi8XF+N1hKVBJPmreTGubTd1lG0XJ68pEj3fpVJaWhS8ISjCvGwjBAA2I5gmsp4KCyjUv7VttnrWWeZKlwLt3vAghTwZjxwrxVLCUpzk8ifOT9ZrzCbtzjKVxI7SUNKWlOGdGk5wrAwOz6a5uzY5xhNJmWqW9GF4S50IZWNLaWtjoKlEBS8ZOTy3xWRdlvItkePIgz35C7cgQi2spTHlKWpTilnI0kEp3PUCKu8DDpc/HHZt3IaT3HSUw4qFNKRGZSpkFLZCACgHqHZWeqFKstxlXd2atqUXjdorbSwVBKGm0J1uYG2FEKGT21fa8/EUlTUXpXv3eLlk7ilKVylhSlKAUpSgFKUoBSlKAUpSgFKUoBSlKAUpSgFKUoBSlKAUpSgFKUoBSlKAUpSgFKUoBSlKAUpSgFKUoBSlKAUpSgOW8ZXjiZjum2VcO1THLbDWcBpBV3wCAHVADfASoAecZ666lXL783xSnuzW5iBcHEQ5LBUlRaQsMs5T0yRqBxkoTv8AzhXUKAUpSgFKUoBSlKAxORmHnmnnGULcYJLS1JyUEjBwerbahjMGUJRZR04QWw7p8YJznGezIrLUdfY8+XZpEW2rQ1IfT0YcUcdGknClDzgZx58VpC8pKN7bAaVu4ut9zjXSSyh0NWwq1rUAA4kAnUnfkcHFaCO6BFDa1SrTcIiu90yWkOpRl5BWlA04Ud8rTzxzrSRwRcbdAvFvhTjJZnQWo7S5CglSNJUkjxU8tB2rekcC2+K1HbtEVLZVKYVJcdeWtRabVq0gqJ6wNhgV6uhgIyed02rdVle+rjsfsM7zsWBu7W164rtzc+OuY2MrjpcBWkecc63KqVl4dukPih64PpjsxlF1a0NulxLjiyPHSlSctHA8bCjmrbXnYinThJKDvl3l029YpSlc5IpSlAKUpQClKUApSlAKUpQClKUApSlAKUpQClKUApSlAKUpQClKUApSlAKUpQClKUApSlAKUpQCqx3R50u2cBXOZAfcYktJbKHGzhQy4kHB9BNWeqj3Vf8A6bXffT4je/8AzUVaH3kDg/h9xj8+XD1qqeH3GPz5cPWqqv4V8oT9o0wr5Qn7Rr19Hx6BmWDw+4x+fLh61VPD7jH58uHrVVX8K+UJ+0aYV8oT9o00fHoAsHh9xj8+XD1qqeH3GPz5cPWqqBSw8ttbiHCpDYBWoZITk4GT1b1+uxpEfR0ylN60hadYUNSTyIyNxTR8egCbPHPFpeS8bxOLiUlKV9IrIBwSM+fA+qvXh9xj8+XD1qqr+FfKE/aNMK+UJ+0aaPj0AWDw+4x+fLh61VPD7jH58uHrVVAlh5LSXVOENrJCVnOCRzAP0ivOFfKE/aNNHx6ALB4fcY/Plw9aqnh9xj8+XD1qqr+FfKE/aNMK+UJ+0aaPj0AWDw+4x+fLh61Vd07lVzn3bgdiXcpLsiQp5wFbqiVYB251814V8oT9o19Fdxn/AOnkfKtXu7u//qrmxStBdf8AD8CYl8rnfdQ7oF14KlW9q3MRXEykLUvp0KUQUkYxhQ7a6JXFe750nshZdCdXuTuds9aa5aKvUSt3X7iz1EV7fHE3yO2+pX+ent8cTfI7b6lf565z7v5MfYFfqUyVKCUs5J2ACBvXocl/C/0fUpfxc6L7fHE3yO2+pX+ent8cTfI7b6lf56587EuDDwYehONunGELZwo55bEVkFtuxkmMLa/04Gotd7nVjtxjOKjk16r/AEfUm/i5ffb44m+R231K/wA9Pb44m+R231K/z1QO8LoHHGzb3tbSdTiegOUDtIxsK8LjTm2UPLiLS05nQtTWEqxzwcb05Neq/wBH1F/FzoXt8cTfI7b6lf56e3xxN8jtvqV/nrnzkS4NMIfchuIac944pnCVeg43rF7v5MfYFSqV/wAr/R9SL+LnRvb44m+R231K/wA9Pb44m+R231K/z1zrTJ0lXQ+KDgnoxjNfnu/kx9gU5L+F/o+ov4udG9vjib5HbfUr/PT2+OJvkdt9Sv8APXOfd/Jj7ArKiLcHWVvtw3FtN+/cSzlKfScbUdK35X+j6i/i50H2+OJvkdt9Sv8APT2+OJvkdt9Sv89c5938mPsCvQallouiOotpISV9HsCeQz9FOS/hf6PqL+LnRPb44m+R231K/wA9Pb44m+R231K/z1zn3fyY+wKe7+TH2BTkn6r/AEfUX8XPpLuZcYT+M7JKnXBphtxmSWkhhJSMaUnfJPbVzrl/cH1+Ctw1pwe/j1Y/QRXUK82qrTa+Fu4utQpSlZkilKUApSlAKUpQClKUApSlAKUpQClKUApSlAKUpQClKUAqod1XHta3fVkjQ3y/aoq31Ue6pn2t7vpGTpbx61FXhnJf77gz5lyz8Rf2qZZ+Iv7VZMv+TT9kUy/5NP2RXs8k/Vf9NfMzv4uY8s/EX9qmWfiL+1WTL/k0/ZFMv+TT9kU5J+q/6a+Yv4uW/gOTaItn4ifusZ2RDbajqcZQoZcw8kgejOM+bNWluy2+ZxHeJ1zaXelviO9ASltLmuKvO6UFaANICUk58Xsrk+X/ACafsimX/Jp+yKzeHu27P+n9Rfxc6VAg8N9+cPw0WZhyNMM51xUgZdUhtTvRpUQcDYDl2DeslotPDtybiXJVoZ78ftfSohR2ukStYfUhSktqWnJCQP0u09Vcxy/5NP2RTL/k0/ZFRzbhL+n18eI0vFy48ZItzPDUFmCw8xGRdJobZcUCtsYa2OCRty5mqVln4i/tVky/5NP2RTL/AJNP2RV40XFWs/6f1Dfi5jyz8Rf2qZZ+Iv7VZMv+TT9kUy/5NP2RVuSfqv8Apr5i/i5jyz8Rf2q6nwn3TrdwhwHCt7DRkz1yFlSDnSygq98o9Z7AP6uvmGX/ACafsiu59zXhizcR9zeO3eLYxIPTu4UU4WnxupQ3H11yYqDjBOzWfqaPf8CY6yc4l48VF4bmzLRbrmp1prW3IdgLbaSe09JpyMdmee1cd474nunFsGzT7tbRAIbdS06nOmQMpypKTuAD5zX0e9BiyYJgyGUvRikIU2sZCgOo9tca7vgbanWRAaGlLLoSBsAMpripW01pWtxvbuzLM5JoR5YfUas/c8cjscVIUqUy1IVHeRDce2Sh8oIQSTsN/wCvFVjW35H+0aa2/I/2jXc40mrXj/5Cufix1lld4t6+HWb7Miv8QtXB5xhM+TlQYLeNKnBkpyrOnPXipF9aIF2M2fPukdxNllFyMuWh2VFSFoIKHRvvk6dWSMVxXW35H+0aa2/I/wBo1V06XrR/v+RN34sdd4e4sg3e73GWC+IrNsjwluS3NbzyC+lKlLVtkkLI+iojuiNtReE7PaUPoULXJciFSd8qS00Vn7ZVXOdbfkf7Rprb8j/aNOTpXvpR6vT+Qu/Fjsd+fUeGkzrusJisKiKDTctL8G4JSUjDSFDU2dOc6ccjmtBvhuwW3iNqy95tT3BFfla0JDivHX7l4hUnpNLYB0g58Ynqrl7MhDD7byY6FFtQUErGpJwc4IOxHmNZ7pdn7xcHZ85PSPu41EeKAAAAABsAAAMVHJ07/ej/AH/IjPxY6iza7X3tMsz7cBVua4hZ74WwCkNNqQcblRKfGIQTnbKhWlOtlihzrg8qyJbfjWhx5TEpgNNlwOpCFhCXFEbEg774z11zDW35H+0aa2/I/wBo0VOn60f7/kTdnQuNrZZWrVcjCt8WGuHOjpbWzqyUuslagck5Grl2Vuwk3x/h2yvcNXhiFaY0BaLgXHUhpD2V6y6g++yCnGQerFcw1t+R/tGmtvyP9o1PJ0rW0o/37ur2kXfix0VFish4aQ67FipthtaXjdAs9N35kZb59uRoxyGasyLJaeiet8u3w4lrVdm+9OiXnvtAZdLRVlXjajjfIySRmuKa2/I/2jTW35H+0ah06b/NH+/5E3ZYuOIdviXxDcOK7BPe6C+y6yG/dN8kIC1aQRp2zzzVd0I8sPqNNbfkf7Rprb8j/aNXUaSWuP8A5CM/Fju/cFAHClwwrV/px3/9CK6jXL+4MQeFLhpTpHfx2z/MRXUK4KltN27r/HPtLIUpSqEilKUApSlAKUpQClKUApSlAKUpQClKUApSlAKUpQClKUAqp91Fpb/c5uzbaVKUpLeAlJJ/1iOoVbKVKdncHyF7EzPk8n1C/wAKexMz5PJ9Qv8ACvr2sMwSTDdEItJklBDRdBKArqJxviurnEOjXbL/ACK2e8+RhbJKlqQGpBUnGpIZVkZ5Zr17EzPk8n1C/wAK7j3K7VxHEvN6ud4WJLNxUcSg5kOONuKRsnYgHfG2MYrplOcQ6Ndsv8hZ7z5C9iZnyeT6hf4U9iZnyeT6hf4V9e0pziHRrtl/kLPefIXsTM+TyfUL/CnsTM+TyfUL/Cvr2lOcQ6Ndsv8AIWe8+QvYmZ8nk+oX+FPYmZ8nk+oX+FfXtKc4h0a7Zf5Cz3nyF7EzPk8n1C/wp7EzPk8n1C/wr69pTnEOjXbL/IWe8+QvYmZ8nk+oX+FfQnceYcj9z+O26haVB93ZaSk++7DWr3T+LbxwbPss+3EOx3i61IjLTlLnvSN+YPPH+dXi1y359sjy5MJ2C86gKXHdIKmz2HH/AO9oB2rOpVjNWUEuq/xbJSNuuad1fgu/cVy7a5Zm2lpjtuJc1uhG5Ixz9BrpdKyhOUJaUXZ8CdZ86e09xz5CN95TT2nuOfIRvvKa+i6V0c8xPSS7WV0VuPnT2nuOfIRvvKae09xz5CN95TX0XSnPMT0ku1jRW4+dPae458hG+8pp7T3HPkI33lNfRdKc8xPSS7WNFbj509p7jnyEb7ymntPcc+QjfeU19F0pzzE9JLtY0VuPnT2nuOfIRvvKae09xz5CN95TX0XSnPMT0ku1jRW4+dPae458hG+8pp7T3HPkI33lNfRdKc8xPSS7WNFbj509p7jnyEb7ymntPcc+QjfeU19F0pzzE9JLtY0VuPnT2nuOfIRvvKae09xz5CN95TX0XSnPMT0ku1jRW4o/cr4Yu/C1hlxLwhCHnZRcQELChp0pHV5wavFKVzylKT0pO7LClKVUClKUApSlAKUpQClKUApSlAKUpQClKUApVEld2HhSHLeiuql9Iy4pteGRjIOD1+asXt1cIfHmepH41ssPVf5WRdHQKVz/ANurhD48z1I/Gnt1cIfHmepH41PN6vqsXR0Clc/9urhD48z1I/Gnt1cIfHmepH405vV9Vi6OgUrn/t1cIfHmepH409urhD48z1I/GnN6vqsXR0CoziG8M2Wyy5a3W0vNx3HGW1KGXFJTnAHXvj66qXt1cIfHmepH41Ru6bxnw5xoxamYbz7ZjyD0q3GsaW1AaiN9zsNqjm9X1WLo7TYbd7E2CBb+uOwhCj2qA3P0nJqQrmdp7q/BNmtUe3RXLgpqOjSlTiNSj2kkq5k1cuGOK7ZxbCel2sulplzo1dIjSc4B7fPUSo1IK8lYXRNUpSsiRSlKAUpSgFKUoDVm22DckBM2IzIASpIDqArAUMHGe0bVFcOyHoLz3Dk5wrfhJ1RnVHJfjZwlWetSfeq84B/Sqfqj91C5T7La4l3tVtefmQ3dSZSAFIZQdlhY5lKh9GQDkECgLxSoHgi6P3rgy2XGU90z77OXV6QnKgSDsPOKnqAUpSgFKUoBSlKAUpSgFQ1/usyEuHBtjTTk+e4pDRfJ6NtKRqUtWNzgY2HbUzUVe7Em8d7OomPwpURZUzIYI1JyMKGCCCCK2oOCqJ1NX0y9l9ZDvbIr73Fl5i2a4dPHimfb5qIzz7aFqYShQCulKR42ADuM1O2C5zLhYhMkiM87lehcNept8DkpO5Izywdwa1fA5lm3NR4dznRpLb6n1TErCnHXFDCivIwrI822BW7D4eiw+H12ZDr6mnUrDjuvDilLJKlZHI5JO1dlaeFlTtBZ33bNvzSvt2WuVSdyt2jjmaqFMuF1REcYjtBbjMQKS/HcKgkNLQs5JOdlDA2NSTvHcFlTjDkCcmchwo7zKUBwgIC9XvtONJHXnq51o3HgeQ4ylKblMnPyH2G35LqkJU1HbUV+LgAE5A55Nbb/AAHFkq75duEldwU4tbktSG1KWFJCSNJTpAASnGBtiumfMJPSe3dfcrey976nqIWkbkfi6FNlMNQYk2W24lpTjzLWUMdIMo1755bnAOOvFQk7jW4Jh252CylYmqkPKfWwMNsNE5OnpBk4AOc7jqztU23wsiPcHJMW5S47ToSXI7ZSErWlGgKJxnGANs4yKwOcFRF29iGJbyUMW5cBJAGdK9OpfpOn+usacsFGSdsuOex/G3CxPpHu2cVCWqLG7zlyXVoa75fYjgNsLcSFAKGokbEZxqAzuasVQsXhtuFdlzY0+U0y4pLi4iCkNrWEBAJOM4wBtnGRU1XFiHSck6Wr4+NxMb7RSlK5ywpSlAKUpQClKUApSlAKUpQClKUApSlAfI/EPQ+Elzzrz347nGPjmo/3D/if1VJ8QdL4R3PDII78d30fzzUf7r5AfYr14wyXo/2P5mdzx7h/xP6qk+HrI3xBdRARJEUdE46p10ZSlKElRJwCeQqP918gPsVN8I3SNaL53xcmXu9Vx3mVmO0FLGttScgEgdfbUunllD+x/MXMs7gmU0uGbU77NMTkrLLsFJUCUY1gggFJGRz7aijZJqc6rfMGmQIpBbwQ8eSCPjearvB40sdphJscGHMXbVMPByTJiNOOdItSDnoidJSA2BgnfOeqte18eNxL9d5s6M9NZkaHopMdDZEhr/VKUkHA2yDjNZ6NS7/Z/wBrJ9pXXOEbl31HiR4MyRKdZLqmUMq1NgLKDnI33TzG3VzrU8H7l3pJl+xc4MRVlD7haOG1DmDttjr7KtaOL7fLtCLXcG5zaXYDbL8lllK1pdQ+t3YFQ1JIV2jevQ40ht8PLgRkS232e+W2XHoTT63kOnPjuEgoOCQdIOdqOM7ZU/7WMt5QvcP+J/VT3D/if1V7918gPsU918gPsVryf8P9j+ZF/Fzx7h/xP6q7t3BdPgtcdGcd+9f6ia4Z7r5AfYruncH1eC9x1J0nv3ljH6Ca58RG0Pu2/wDrbvJWs6jSlK84uKUpQCubd2Lim88MR7UuzzFRjIW6HNKEq1YCccwe010muRd33X3rZNCgk63uvHUitqCvUS+Cfc8iHqKH7a/Gvzw56pv8tS1k4y7ol/YnvQrxhMBgvOdIhAKgATpT4m6iAogeY1z7/SPKj7Yq68K8V2/hu2Qm3I/fchc/p5Si4UdGhI0pAx77ZThwdt69WVKdvRi7/wAkTO68MlbJxN3Q75C78TxJEgsLd6Blc1TbfTuYB0o8Q5O47Bvzrdi3DukzIbTg4mgIkSOmDUJxaA86W1KSoJHR6Tuk9dV1q48Mzrei1XKdMYjW6c89FcYbCjIZWQdBBI0q8Ub8t6SuOZEGwW+38POIjdEmQlZcbQt1pK3VFIS4RnOhQyRiqypVbejB3/kiSmt/eZW+LOOLWu026PdWWEXJtDsdDTKEoQHFkDI0bb5JxnnUreL73RrTGcfb4kiXNLL4jvJgFLimXCcAKSWwdyCB56qsq9sO3ThmQh49Hbo0duT+shxSlY7diKnJHENgtz85dtuMmcq63JmS+XGA0mO2h0uEDxiVEk46uVS6VXZB/ojv+QuvDCuMO6c3FLzkichwOBAjqgkOEaVK1f6vGMJPXnblgE1qx+Pu6TLShUZ64PhxCloLcMK1JBwSMI3AOxNezxqlh+VLZkLdePEAnNpWffR9KwUk9WQrGPPUo1x1Z2p82HEX3rbkNR24DrrPS6Q2VKVqQFJOSpZOc9QqnJV/U/siLrf3kXF467pUwMLakzAzIdSyh9UVIbKlK0gatGOe30VqSe6hxtFlPR1XtSy0tSCpDSClWDjI8XlW27xgw/JsshySrMFyXJdQlGhJdWtS2sJyQN9PWcVRj3yTkvDJ/nirxpVPzQf6Ii68M6RwP3RuK7vxnbIE65rdjPvaXEFtAyMHsTXe6+Ye5x03thWbW4CO+Nxqz+ia+nq4MXFxmk1bLalHuRaOoUrG8+zGb6R91DSMhOpagkZJwBk9pOKyVy22ljyokIJGMgbZ5Vz2Fx3fVR0qVb2pjy0GXoYbdPuJWUIQnSk+MdKjlW3Lt26EQlaSDgg7GoF7hvha2R47slhiMzEIDa3pCkpT42oJJUrcZ3AOQOqu3CVKEU41YaTdrd/FcCsk9hi8I57r8+QzEji2QXHWXHFukOlTacqUE4xpztjOeuoO38XXyBb4sOZFZlTHY8VxtReJKlPOacLONjgE7csddWp3haxyJEiUuAhTktC0uqC1YIWMKIGcAkbEjBNZVcP2pUtEpUQF5Cm1JVrVsWwQjbONtR+uto4jCRVnC+ru9u3O+rqIalvIRniu5SNEJuFFNxdnvREnpFdCEtDKl5xnzY7ajGuNpkmaiW0zkiK2wIoc9zVJcfLaTqx733MnOORq1v8ADNnkRBFch5aDy3xhxaVBaiSohQORnJ6+ungxZe93o4t7aWn0NoWhJIGG/eYwfFx1EYqY4jBr8j8PPbu7HtzFpbyFRxbcnJItSIUQ3MS3WFKLqgxpbQlalZxnksDHbUYxx5MfSJxh+6LYabbYStSkdI66sIJABJwhAOwzvgDepe88FNy4sWNbFRorLBcJS62tZKljBXqCgonnnJIPXyrda4WsVvsy4z7KOgDTQeeccKc9EnCVZz4pGM5GK1VXAqCejdvZt157dq2LVvItK5DTONrrDgxXnbUiPrW6l56Ql1LQKVYT+jlIWNwVAAVdhkgZ2PmqFPCPDzyGD7HtqQ0gJRpcVhac6gFYPjjJJ8bPOt+329MDvohZWqTIU+o74BOBgbnqA/6cq4sRPDziuSVmr+3PLa9RZX2m5Ssbr7LJbDrqGy4rQgKUBqV2DtOx2rJXHYsKUpUAUpSgFKUoBSlKAUpSgFKUoBSlKA+SeIEA8R3P3YD/AEx3bfbxzUdoHl0/11v8Qqa8JLnlBJ78d6/55qP1M+TV9qvUjKlZfd7ZlMz90Dy6f663bPCanXqDDef9zkSW216Tg4UoA48+9aOpnyavtVngTk2+4xprTWpcZ1LqQo7EpIIz9VTpUt8e2ZGfixdLhwnYrk3Ob4fcmRpNtntxHky3Q4hwOLLaVAhIIwoct9jWqzwH0q5MFF0iOymp7UMyA4tLaHFBfiaSjfdAGc49PVgmd0B19QMWzwYAXMRMkCOFZkOIVqTqJJOMknAxzqPc4rkLZnoSwhszp6ZylpJyhxJURp83jn6hWPov8yXtlw+pYk4Hc3u81hp5UppkLbU4tKkOLW2OkLacpSknxlBWMDkkk4rSvHB0qxW3vu43GM06ZDkdEYFZWtTagFEEDGBkHJNbr/dIny7vNnSoTDrc1ptp2NqWhACDlJBSoKBzk8/0jUNdOIVXWBFhOxUNtxXXnUaFKJy4QSMknYaRiicb/eXbLsBGaB5dP9dNA8un+uvzUz5NX2qamfJq+1W+lS/h7Zlc/Fj90Dy6f667R3ILsxYeAbxcZKX32mZZUUx2lOKPuaeocvScAdZri2pnyavtV3buClJ4WuOkEDv3rP8AMTWFeVNw9G3scvjkWVzc4P7qrPED1ydnRJEZhpaExm48R6QcYOStSEkA8ttvpqz+Gtm+Lc//ALTK/wDjqVi2yDBkPyIkRlhySQXlNoCekIzgnHXud62q4CxX/DO2rOmPDu8hXMpRapAwO3xkCv3wuZ+Zr5/9tc/Cp+lAUHjPuhyLLYFTrda57T6HkDM2CtDRSTuCTjGa553S+LG+MOG7FPXbpcEhx4EOI8RZwjJQr9IV3idbodzYDE6M3JaCwsNup1J1DcHHXXKe77hEOxhLYIC3gBjlsitaNuUV/n7iHqOc2fhJm6cMXG799ONuxwox2NI92CAFO/ZSoGt+38BR7jwzabq1Nd6WfOEdxvQMNo1lJXnzbfXXi0d0CRZ49shsWlhUKIhxMhpaUqVILhOshZTqRkEDA7Ouv21d0By1WZu2tWkLS1GksoUp3kp1QUleNPNOn6fNXXJZu0V2Px/sqeOL+C4PDbDzzM56QlucIydSAMjoUO6v7ePoqKtNhYulnuUxD7iXIamEoRgYWXF6dz1VYJnHtruzDzN34XclIXJTIQETi3oIZQ18Q595n6fNUHbeI0WyNcozNs9ymvMuIHSH3INuawOXjdmdu2pglo2cVs/KwyWhdzK4O3VuHNlR4yCt1tbiX216Ftp1FBAOyiN8dmT1VEjg64Kt/fyA2tvBUEpeQVqbC9HSBOclGrbV/lUxH7oZYnvyVWbWl+6PTlI6fB0uNqQUZ08wFe+/qrwe6C94Ps2lEOY2iOnomw3OKWy3r1ALbCcKVg4zkZ7Ksmr5wX6ZB9ZiX3Nruh1xpTsMLaeSwsGY2NLis6Ubn3xxy57itMcD3QsxFltKXJry2WWFOoDilIUUr8UnYJKTknYVPp4ytb9uuNwnWzp35F8RNbhCQUKThCiFatJyAcA7DOeqo72wZnsvabp7HI74t7khxfjkB3pnFKVjbxdlkdfbS69Rdkt3X7B7TxG7n8l2NcHXZjCe9YyJDGh1C0yQpekaFA775HpwOusHgDd/ZFiClLS3Xy4kFEhtSULbTqWhSgcJUBzB7akFd0NxU+U+uBMkNvRkNNiVOLrjakuBxKtRRuNQHi4HprLN7pT8y7s3BUCYoIQ+FMvTlOICnWyjKAU+IBq5b9maXWfoL9MvmDS7n8dqL3TLUwHkuqblFOttQUhWx3BHMV9OV8wdzZRPdDsw6IJ/0jmB/NNfT9cuJtpq1tWxNe8siA4pfeQu0sslwBc5K3SjP+rbSpZB8x0gVV4Dt5aiIefm3J9bliflvtlxWy1Ky2lI6lDffnXR6VrSxap09DRv4fz7iHG7ucssy7rFmW+G1PloZbTHWyVqdKXUka3ypOghQKtSfGI04FbMS0zbqvhp66zbjJVKW7MdZU6oIbSkEoSE9RytIyd+rlXSqV0T8pttuMbN7duprdxv19ZVQOVxr5xA+q4y47s5tCoqVrQ4pbhZKngkkJKEgFCNWyQRyySa3rtMmMwoabfcbsu2vKfV3w+p1LpWAAhIUlBWU51EAjfGM4wK6NSj8oQ0k1TVvpbds2E6D3nPW7hdkcWw0Sp0x9DaUJfbaS40G9LeVrUgp0rbUd87KBIA5VYOJbxp4WbmwC+puYpoIeZJbKELIOsnSopGP5ud+qp91tDzS2nBlC0lKhnGQa/W0IabS22kIQgAJSkYAA6qwniqc5Qm4fdtlsfd44kqLW05jEl3qXa0mRPuLTcaBNkno3Fha8OaWkFRGokaSRnevy9O3Wcy5a50u4JlLZhR2W20q6N5LgSHlrwMHcqG/LArqNK6F5SSnpKmuHbfd7HwK6HEqPE0h1u9xoLkq4w4Jiksqt6VFbj+oJCcgHkN8HY535Vo3eZdvCKQw1KnoltyIyIDDaSGXGjpLi14Gkj34OeWBir5Sueni4wSWheyt333ex71uLONzlPfN4nyY0tlye/c4zMyU9GdQromXkgobSgEYyAvkOe2edW3gZya9HluvzXpLBUgN9MpxZCgnxyFLQnYnGwGAcirTSr18cqtNwULf7vu7OBCjZ3FKUrzS4pSlAKUpQClKUApSlAKUpQClKUByO4dw6ROuUqWOJENh95bgR3lnTqJOM69+da/tCSf96EfcP8AvrslK6VjMQlZVH2srorccb9oST/vQj7h/wB9PaEk/wC9CPuH/fXZKVPPMT0j7WNFbjjftCSf96EfcP8AvrUuXcXRaIK50/i5pmO2UhTioOw1KCR+n2kV2+qL3WrLPvfCrbMWU2ww3IQt8KzleVBKQMdWVZPoFOeYnpH2saK3FU9oSR/vQj7j/wB9fvtCSf8AehH3D/vrqdgiTrfYYcO5SESJUdoNrdbzheNgd+vGM+fNSNOeYnpH2saK3HG/aEk/70I+4f8AfT2hJP8AvQj7h/312SlOeYnpH2saK3HG/aEk/wC9CPuH/fV74C4NXwVa5MJy4CaX3+l1hno9PigYxk9lWmlUniK1RaM5triyUkhSlKwJFKUoBWrNtdvuQQJ8CNLDedAfZSvTnnjI25VtV4ddQwyt51QS22kqUo8gBuTUptZoHH72FL7qlrsh4Zt8K1tyEFRbjNq6cK1aSsgbA6ThJ7OuuneC3DvzBbPubf4VrcKMrfhP3qQgpfu7vfOlQ3Q1gBpP0IAJ85NT1W5Se8WIrwW4d+YLZ9zb/Cngtw78wWz7m3+FStKcpPeLFbvljsluscyZE4XgypDTKiyy1AQtS148UYCcnfFVfuUW6JdOFNF64Zjpkx3CEvyICR06CSQQop3IOR9ArplQfBfwSgfqq/fVTlJ7xYz+C3DvzBbPubf4U8FuHfmC2fc2/wAKlaU5Se8WKXx1YLJC4Iu8qLZrey+1GUptxEVsKSR1g4qJ7l6WOJ7At+8cKWpBZV0aJSYrQ6cjnlGNiNt+RzXRnmGpLKmX2kOtrGFIWkKSfSDUCkCy8YlIGmJe05HYmS2nf7bYHq/PTlJ7xYkY/D1kiPofjWaAy6g5S43GQlST5iBtUjSlVbb1gUpSoApSlAKUpQClKUApSlAKUpQClKUApSlAKUpQClKUApSlAKUpQClKUApSlAKUpQClKUAqC4z+DEj9qz/FRU7UFxn8GJH7Vn+KigJeXLYgxXJUpwNMtDUtZ5AVqqs0B67t3goWZSEYQsOK04wR73OORrS41+B9y/Zf5ipiN/srP6if8KprlZnUk6dFVItpttPqsvmY7hAj3SE5DlJUplzGoJUUnY55jfqqE8AOHvk7/wB5c/GrJSkoRlm0VpYqvRWjTm0uDsV+PwRYoslqQ0w8HGlhaSZCzuDkddTUuK1OiOxXwS06kpWAogkHzis1KlQilZIipiK1SSlOTbWq7NeDBYtsJuHGSpLLQwkKUVHnnmd6jLjwjZ7rNXMlsuqecxqKX1pGwwNgcdVTdKOEWrNEQxFWnNzhJpvbfMrfgBw98nf+8ufjUva7TEs0QxYSFIaKivCllRyfOT5q3aVEacIu6Repi8RVjo1Jtri2Ry7Db3Lyi7qbX32gYCulVjlj3uccjUdxaj2SEDh9Pvri+C6Qd0Mt4Ws/ThKfSurFVesP/il7uV9UdTWrvKGero2z46h+s5q9IQmp0VmrazPlql4y0neOrhbcYx3P+HQMCM8AP/7Ln41nhcGWS3zGpcdh5LrStSSX1kA+gmp6lVVKC2I3ljsVJNOpK3WzBNhs3CG7EkJKmnU6VBKikkekV5t8CPbITcOKlSWWs6QpRUdznmd+utmlXsr3ObTloaF8tduJAzeDLJcJjsuQw6p106lEPrAJ9ANQfDHBlkuHDsSVIYdU64FFRD60j3xHIHzVeqg+C/glA/VV++qqOlB7EdMcdiopJVJWXFkhbLXEs8MRIaFIaCirCllRyfOaxrskFy8ou6m199oTpSrpFYxgj3ucddSFKtoq1rGHLVNJy0nd6+NzWuFvj3SE5DlpUplzGoJUUnY55jfqqrXnue2xVpkm2MuJmoQVsa31kFY3AOTyPLPnq5UqJQjLNovSxVeitGnNpcGVfhvh/h92PCvluYeSpaA4jU+s6SRgggnmNwfOKsE6ExcYTkOSlSmXRhQSopPPPMb1DWn/AMH4lnWcjTGmZnQ+wEkB5A9CiF/8w9lWDOOdSoRSskVniK1SanOTbWp3MEGExboTcOMlSWWhhIUoqPPPM71FTuDrLcZrkySw6p505UQ+sDljkDU4SBzOKEgcyBRwi1ZomGIrU5ucJNN63crngBw98nf+8ufjUva7VEs0TvWEhSGiorwpZUcnzk+atzNNSc4yPrqFThF3SLVMViKsdGpNtcWyPXYbe5eU3dTa++0DAV0qscse9zjlWe426NdYS4ctKlMrIJCVlJ2ORuK2aVOis1bWZ8tUvGWk7x1cLbiueAHD3yd/7y5+NZ4XBlkt8xqXHYdS60dSSX1kA+gmp2lVVKC2I3ljsVJNOpK3WzWuECPc4TkOUlSmXMaglRSdjnmN+qkCBHtkJuHFSpLLWdIUoqO5zzO/XWzSr2V7nNyk9DQvlrtsvvIGbwZZLhMdlyGHlOuq1KIfWAT6Aaw+AHD3yd/7y5+NWSqebrd1R4t7TOSGJMxLLUANDCmyvT77nqxk9lYzjTTziejh62MqK0arSVlrfsWXV1Fmt1ujWqEiHESpLKMkBSyo7nPM1jNnhG8C7aF99hGjV0isY/VzioNq43Q8UBl6YWmHH1JYaUwCy80E58Vwb69icHsq1VeLjJatRz141aMruV3JXdr7dd9/E1LnbIt3hqiTEKU0ogkJWUnI84qG8AOHvk7/AN5c/GrJSplTjJ3aM6WKr0o6NObS4MgoHB1lts1uZGYdS80SUkvrUOWORPnqRZubD91k21AX00ZCFrJHikKzjH1VuV5DaA4pwISFqAClAbkDlvRRUfu5ETryqtus3J2yu9Wf+z1SlKuYClKUApSlAKUpQClKUApSlAKUpQCoLjP4MSP2rP8AFRU7UFxn8GJH7Vn+KigHGvwPuX7L/MVMRv8AZWf1E/4V+SorE2M5GktJdZcGFoVyIrKAEpCQMAbACq6PpXN3VToqntTb7UvkftKUqxgKjeILgbZYpUpKsOBGlv8AXVsn+sitqdMat8B+Y8FFphsuL0jJwBnaouPerbeHxHkxJMZbCRKQJjXRjCT78b42JFUm192+Z00KUm1UcW4p5kMzepB4aEZu4OFxu4JhuTVe/DalZC9+R0kDJr9vHTW+F3lFvM+arv8AZQpDbo6dtKknKdfXnmM1Y3WLM6y9Ie71W1O0pcWpYKHcbJHPBrVjRrBESmLHjx2mGdMsOJUkIByQFZznIx17Vi4PU2ejHE076Sg9d7WWvLbwd7Jb9maIq3Lu8WRamprspCHp7wQiQ6FOFrolFIWRsdxn6quFRkifaHLhb0OvNOPuFS4pCsjkQSDy5Eitv2QhdEp3vxjo0q0lfSpwFdmc861glG6ucWJlKq4y0LZbuL/0R/FE96DZltxD/psxYixB/wARewPoSMqPmSa3rbAZtdsjW+OMNRmkto9AGM+modhab3xgqQghcOzN6G1A5C5DqQVEfqtlPrD2VYq0OIUpSgFKUoBUHwX8EoH6qv31VOVB8F/BKB+qr99VATlKUoBSsK5ARKajlp0l1KlBaUEoTpxso9ROdu3BrNQEDxaw4i3NXeMgqk2l0SkBPNSBs6nz5bKtu0CtHiyQm7xYVvhpekoltqk5jYJ0BPiK3I21KSfoq1kZGDVe4ZSm2y5vD7gGqCoLiEjcxVklAHmSoKR6Ejtqk46UbG+HrcjUVS17e/6EVKnwLsuzyb6oJtz0RZUHCUt98AgEKx1jCsZrXnQGbq9ZWLdERMYMN8tIuC1J8XUkA5G/o81TTXEkYQm0y4KnFvOyAhqOzqBDS8EkE88YP11+o4thqlyFqjOCMyw0tp8IyXOk5JA8+2PQc4xXO1F63rPbjOvB/s6b9G9s8s21lqzu7a87dmPhyE7br49Dfe6Z1m3R0KX2nU521oybbarVf7tNbjJZVEgokNuIRrLayXMqAzudhU21xNAefjoYjyHX5OtOlDY1I0EBQVvtjVWhC4tSYLk+5W91ppbi0hbbBIQ2lWnK1Z33PV59qs9CyV9V/HeZReKc5VNF5pJq9r+zjZ7CF9l5E0xO+7n0aY90CESldEShJZJ3KRo5k77j04rK9ebgERrkkh+S1CmBt3SAHEpcQkLwNuQz2VZvZi198vMd6udExqS5IDGWklKcqBPmH0dVZrTd4N3197NqQthKfFcQEqCVDYjzHH9VQoXy0i08TopT5DJdlnfhtua/C82ZNiPmXIakhDmG3EOoWSMAkKKABnPm5YqbryhtDSdLaEoSOpIwK9V0RVlZni1pxqVHKKsnsNaVOYhrjoeUQqQ70TeBnKsE/wCANZUvNLBKXUKCRk4UDgVCcRwZ8yRHXDYLgjsSFDxgMuqRpQNz/ONRD3C8thp5uJCT0aY0VlSELSkyQlep0E55kbZNZuck3l4sdlLDUJ04uVSzfVvtv3ZlrbucR2RIYS6Mx0oU4onCQFZxv9FaLHD9kh3IS0ICXtRW2hTxKUKVzKUE4BO/IVXF8N3DC5CLWENrnOOmChTR8TQEoOD4mxzt1Z2rCiySJj02C1A6cstx4bcpxxJ72KAFKPUSfG2KR1dVZubeuJ2QwtOKfJ1rK2ea4J3z49mq5a41gtEK5GW0kpeRqcS2p5RS0Ve+UEk4Gcn66kw+yUqUHUFKRlR1DA9NUl7hy69PcXRFW5IUJBbfDjYDvSDSlPxtknkSANO2ayyOGZMeWsxrclyGhyKFMJUhPfKEJUVE5OCdSk++56asptaomU8PTqNOde7tw4Za+OXtuWpi5RJC30odH+juBpalbDUQDgHr2IrYLzSV6C4gKyBgqGcnlVCPCtx71a1W7KHFSSuIhxvDKlqAScqyMBAxkbjqFSD/AA3Jekuuqi9IszIqG3VqSVJZbCSpYOdiSCO3zVKqT2xKzweGTyq5ezY0t/t6tVy1syWJCnEsuocLS9C9JzpVgHB8+CKioU2S7xdc4a3SWGWGVNowMJJ1ZNeuHIT0JiaJEXvdb0113AKcKST4pGD2Y54O1a1v+Hd4/o0f/wB1Wu3ot+MmYxpwi60VmlHJ+2JYaUpWp54pSlAKUpQClKUApSlAKUpQClKUAqC4z+DEj9qz/FRU7UFxn8GJH7Vn+KigN+8meLRJNrAM3R7jnHvvp2+utxvV0adfv8DV6a8vPNR2VPPuoabQMqWtQASPOTXsEEZByDUWzLuT0ErbXn2ZeN5+0pSpKEffYj06wzokdIU68wtCATjJI23qsSuDpTAlMwGwtqSw2Qpx3K21IUCpsFWfFVjz7+arDxHIejQGFsOKbUqYwglJxlJcSCPpFR0PiK5SpDKFR4yG5SpLbKgpRIU0TgqHYcdVc9RQcvS1+Pmevg5YmnR0qVrXevhZ/C/aRsmCiys29+W03o74fUuPNfRpytIGdQSEjlnH844zWGBw/NmWSOsRtSFW9pCU9L0atSXlL2yDjYgjIxWe28V3RUaEy5CM5zoG3X1NtLUpQWogY0ggEAE74B5Cs1xut6nqS1HWzFY9lO89SFKDigM9fUNuqsvQefjcei3iYvQaSd9d8sm3kte3r+Brh669BA6RlnpG++UKUnQlTSXB4qjpABIO5xUbLsz9k4fcnSoi1d6LjrdaU82pLyWydkgJHMnAByTnFS7/ABk5EmS0LZZfYaaeW2pkr3LagMFRGDnO+M4qM4kvFzcvFrs0hmO4828JjrcdLjqVpSCWwpIGffgn/lg8qslT1mHKY1WWilfV2tvbsuWvhu1uWmyssSClUpwl6UtI2U6s6lY8wJwPMBUrWtbpTk23sSXY64zjqApTLgIUg9YOa2a60eBKLjJp60KUpQqKUpQCoPgv4JQP1VfvqqcqD4L+CUD9VX76qAnKUpQClKUAqvcT5tr8HiJGwgr6KV/OjuEBX2VBK/8A0ntqw1ikxmZkV2LIbDjLyC24g8lJIwR9VARMfhpth1hwSVK6EySBo59MrJ+qtTwLZMbvczVFBjstYLST4zRylW/VzynrzWzwpJeFvdtUtaly7U53s4pXNxIALa//AFIKT6c1O1nycNx1rG4hO6l7t9/eyHgcPtwpcWSHUFbDbqCG2EtJVrKTnCdhjSBUbM4GZmRkMKnrCUocTu0lQGtZXkZ5HfGesdlWqlHTg1ZomOOxEJaUZZ9S4/NkL4OnpJTYnuiFMLinowQnxlLThXjc8deO2s1ksiLM0tCXGnCrACkR0NHAG2dI3PnNSlKlQindGcsTVlFwbyfBbBSlKuc5WLlf58C6XJSUtOxITTSUtJSdS3XCAnJ83m6jRriG6vqRDRDZbmKU6Q48lxtotoCfGAUArcqA+g1Mu2e3PuyXXYqFqlJCXsk4WByyPNgb860PY7h55jvd6Ky21FdWB0q8ZOxWc5yRuM5+msHGaevxc9WFXDSilyeats4deed3xXUR7l7ujN6kOhDS46XYsVTRcJAWsZVo6ifGG56hXlni2SyymY/CjiO/HfkpDJOshCgAT1eNkD/9xUwtqwpld6qLAeK+/CjpMYIAGvnttjH/AEr2mHZGWWvFjBrvYsI1OApLWRkbnBGcVGjPZIvy2HstKk9nC6tbfvzIaTe7m5KatUgNMyVyIx1xlnAQoqUpJz14QfSDXt7i+RGSJzsVowHFvoaSlR6U9EFEqPVglBHmyK2LQrhtZU5CZQ0iLIKUPuKwFuYKdlE+NtkfTtWxKslrWuUiMI8edKbUNRAWQFe+Og7YPXjnUWm1dMtKeGjPQnTa9luva7bHttmrZkVJ4guiulhSGWG3VJj4VHcUCFOrwBnmCAFVlj8VXCSX3mLYXWOjdUwAlaSVIOEgqI0nVvsnOMYrNZrDbbe2++/IivqS8hxSm/EQ0pAwkbqJyMnmeupBNhsryXnUQmHEyhlagchQznbs332696lRqPaRUq4OLcdC6324K+V/HUeeHrq9doTjz4aC23S2Q2lSSCADhSVDIO9ZI1qUxxBNuZdBTKabQEY3Tpz1/TX7HscOJKYejthpLAXpSMnKl4yoknJOBWVm5sP3WTbUpX00ZCFrJHikKzjH1VolktLWcU5Jym6H3Ws+Cuvjb3G5SlK0OMUpSgFKUoBSlKAUpSgFKUoBSlKAVBcZ/BiR+1Z/ioqdqC4z+DEj9qz/ABUUA41+B9y/Zf5ipiN/srP6if8ACofjX4H3L9l/mKmI3+ys/qJ/wrNfiPqXxOyX7pH+aXuiZaUpWhxmGTEYmNpbkNhxKVpcAJIwpJyD9YrC1aYDKmVNxwksKcW3ufFK86jz68mtylRZF1UmlopuxFt8NWdpTKm4SUln3mFq23yBz3AO4B2FbAtUEYxHG0gyRuf9Yf0ufnrcpUKMVqRd16stcn2silWKyRS/MXEaQClwuqUTp0q3XkE4wedQ/C9ggzbIuZKhkJuD5lMoWpQWy1jDQ1Z1A6NzvzURW7xWpU1qJw+0fGuzhQ8R+jHSMun6RhPpXU+AEgJSAANgB1U0I7iec1vXfazy002wyhlpIShCQlKR1AV7pSrGDd82KUpQClKUAqD4L+CUD9VX76qnKg+C/glA/VV++qgJylQ5vyyJy24DhahFaVOrdQlJUkZxucjnzxWyb1bUKU27OjtuIAK0KcGUZwN/pI+uq6SNnQqLZ8TfpUei+2l0Et3GMrCC4cOA4SOZ+is5uMIKUkymspUhKhqGxX70fT1VN0VdKotcX2GzStFF7tbjbriLhHUhkgOKDgwnJwM/TXpu72515plucwpx5IU2gLGVA8iKXQ5KovyvsIq7f+D8SQbynIjzNMCZ2Ak5ZWfQolP/ADB2VYa07vbmrvaZVveOESGlI1DmkkbKHnBwR6K1+Hp7twtDZklPfkdSo8oJOQHUHSrHmJGR5iKkzJSlKUApSlAKUpQCqWnhye4hbkmE264I8txKFKSQX3XMpHPqSBvV0qHXdpjt3fixIrS48NaESFuOFKsqGrxRjGwIO/OsqkYu1ztwlWrDS5O2937N+29ivy+F7gtZSiKlaWo8RtKwtGXEt+/R42dztzGPFANblt4ZW3cGX5kIKZYYcWhp1aFhLy3NWMAAbADqwCduVFcZSGI7ct+C30EtlbsRKHDrOFJCQvbA1ahy5VjXxDc4lxm99NNqcbUxEaaaUpTXSLCllWw1bJxkYztWP7JO/jeeq3jpQcWkvbnsi9vaaEzha7GzQ4LENo4iq6QpLeUvKVlWSoHbG3i77cxUq3YpolzkGEyVurcWxcVuDW2C3pQAOe30D01OWia/cLciRJjmO6VKSpBBHIkZGQDg4yMjrqEkcYLZub7CWGnI7aHiFpKs5bTk5ONPPbAJI2qXCnFXb1mKxGMrOVNRV1e/td3tz1dXWRzXC81FsWg290LV0KClEhkK9zBIWAEBJ8Y/pEkirBw73zFjotkmM0hyOylbi2cBGtSlHTgDAOACfTWgnimejW0/BZElSI/QoQ6SNbpICVHG2ME7dVSVgnyp4uBlpQlbExTIDaspGlCM4J6s5P01MFBSWiVxcsROlLlYq2Tye3Li9jJesSIrCJLklDKEvOpCVuAbqA5An6ay1ERLjIe4puNvWpPQR2GltjG4Ks53rdtK1zyqcJSUnHYrvqul72S9KUqxkKUpQClKUApSlAKUqGVxdw+i6+xaroyJvS9F0O+rXnGOVXhTnUvoJu24htLWTNKxSZLMOM5IfXoabGpSsE4H0VkKgElRIAAySarZ2uSftK1otxhzVaYz6XctpdBTuChWcEHkc4NbNHFxdmgKguM/gxI/as/xUVO1BcZ/BiR+1Z/ioqATEmMxMjLjSWkusuDC0KGxFZAAkAAYA2AFal2dmsWqQ7bmUvS0oy02rko/WK2kFRbSVjCiBkdhqNpdp6Cd8rvLs2HqlKVJQUpSgFKVD8UXB6BZHExFYnS1JjRB/wAVewP0bqPmSaA1rH/4pfLjfVHLaFGDD7A2hXuih+s4CPQhNWGtW229i1WyNb4ycMxm0tozzIA5nznnW1QClKUApSlAKUpQCoPgv4JQP1VfvqqcqD4L+CUD9VX76qAxL4Z6SJds9EJU9TmhzJwlKgMA/VRfDbi2pKdTOt+a0/qIPvE6MpO380/XWfi74Ou/t2P4yKiGbnd3ZyQq4q6KRNlxUthpA6NKAspUDjORp69q55OMXax7FFV6tLlFNLN6+CT47u7iSCeGlGSlbimi2ZMl1YGclLqSAOXPetO3cIzIsyJIkTG3NBCpGAfHKAQ1j0Z39FQ8G+XWPAtcaJObUO80O6nnGkhxZVgoJUN8bDbxt9zW3ckzrvEWJdwcLCryIyWA03pCAvAzlO/07bDaqaUHmlmdboYmEtGVRJPLjrey3G/+jcTwncnA/wB9zGn1OobRlSlKyEuhZ2OwBAOw2Fbx4bI4gVPAZWyt1DoCluJU2UpA2SDpPLr5ZqCXxTcGpk1MOQZDTcd9Tba22x0ZQsJGEp8YADPvueM4FbVwvcyNHjtQ763NDr6krlgNI6PCNQQSRo3O/Lltz3qVOna9ikqGMbs5JXvvW6+zLUvdmXOq8r/wbjIKA0xL2nCuxMltO32mxj/ljtqWtbz8i1xXpXRl5bSVLLSgUk45gjqrX4ita7tZno7CgiUgh6K4f0HkHUg+jIGfMTXUszwZRcZOL2EnStGy3NF5s0W4oTo6dsKUgndCuSknzggj6K3qFRSlKAUpSgFV9x2wHilaZCG257fR6VuOYDi1A6cJzgqA68Z3FWCq2/w/KfmPyFdDl+5NPqOd+hbSNI5c8jl56znfKyOzCaF5acrZbHbavhfI9phcJtmdHBiZS2RJQXiejRnJGM+IM77Y3rG+OFIVseQp1gtOrU9jvklbjiBuUqKs6hjGx51F+CV4kB8S3GFF1kskpdODqdSpagkJATlI5dvXW/eeG5sl6Y3Baid7TIzTHjqKSwlKiSEgAg5znmNxWPpW+73HpWpKaTrt7891tveuq2s3LU5aGA3NYkNMNuxQltkr/wBWlGSvO5yQVHJ81ePY7hVyatjLBkSW1qLQkKyUL8ZWE6tgcZ2qNd4MlvXBThebTHVKUNAJ2jqJUpPpUTg+YV6lcN3mRdHpOtgoCn1s4c0jKmyhvKQnYjOCck0vK2cSNGjpOUa7V1vt1LjxJKQ5wtJbdW/KiFMpbYUrvjGpSQCjBB2IBB2xzqWg2+LbWCxDa6JsrKyNROVHmcmq1L4ReAiNxEMllMLvR5BcLYGSCpWwOrPXy6t6tiEhCEoHJIwK1gndto4cU4KEVTqNp7G92SyPVV63/Du8f0aP/wC6rDUVFtj7HEs+5KUjoZLLSEAHxgU5zn66tJNtdZlQnGMKib1x/wDZErSlKucopSlAKUpQClKUArntvE6DxZO6VF/baeualpbYhhUZxJwNSlkZx24PIV0KqcnjKW06uOzb1znlPzQnU8lsJSwsDGyeWDtzPLOedehguUtNQindW2Ljty2FZEEIN3Ft4gAg3MdPEX7FJUFFTTfSKy2RjIWSQQDvpwOqtz2Nua+MZiFRJkiNKDyHFvJcQEILe2lYXoUnOABgKGfNmtu+cbylWKTIssNZU3bW5i31LT7h0gJQNJB1HY5/zqTHF6coHeK1FVydgYSvJyhClagMb504x5+dejKpilFy0Fnda81kvlfi89pTLeU632i5i2MxWoNyjt9Db23E6HEEKDyumI6xsckjqx1VvLhyoktuJKj3Fy2NXCV0TDK19JjSgtqG+ooBK984BIzW45x9LncPyZtthMIfZfYbKFSQopS4sJOpOAUq6txjfIJxitiReY17aSbxw6wuE1cjC6V14L0LypGvGnYZCRz/AEvNWkqmJ0nKpCyu75q97Ljr3bSFo7CU4GW45wTaVuqUpao4JUo5Jr1xn8GJH7Vn+KituwTm7lZI0tiKIrDgPQtp5BsEhJGAMAgA46s1qcZ/BiR+1Z/iorwcQ26021bN5e01jqRNuOIabU44tKEJGSpRwB9NftQfGvwPuX7L/MVlncRWmwxoibnL6Avt5b9zUrVgDPvQe0Vy6aUmmdKoSlTjKObbat1JP4kxSq37YXCvzp/d3fy09sLhX50/u7v5acpDeieZ4no5djLJSq37YXCvzp/d3fy09sLhX50/u7v5acpDehzPE9HLsZZK5jwzx21xdx8zCmxFMO21L4YS0CtC3CdJWTjxMIBAz8c79VWr2wuFfnT+7u/lqG4dvPAXDLL6YE73WS4XH31x3StxRJO508hnYU5SG9DmeJ6OXYy+0qt+2Fwr86f3d38tPbC4V+dP7u7+WnKQ3oczxPRy7GWSlVv2wuFfnT+7u/lp7YXCvzp/d3fy05SG9DmeJ6OXYyyUqBh8b8OT5bUSNcdbzyglCehcGT6SnFT1WTT1GU6c6btNNPjkKUqt3nju0WO5LgS0SVOoAJLaARuMjmRUSkoq7ZNKjUrS0acW3wzJm6XOHZrc9cLg6WYzABccCFK0jOM4SCeuq73Ob9bLxw01HgSemchjS+OjUkIKlKIGSADt2VpTu6NwzcIEiFJYmqZkNqacT0Sd0qGD+l56hOBuJ+G+DuHG7YlExx4uKcedDKRrUTt+l1AAfRVOWp+sjp/43GdFLsZ1NaEuJ0rSFDsIyK/Ay0CCG0AhRUDpGxPM+mqf7aVg8lN9Un81PbSsHkpvqk/mpy1P1kT/AMdjeil2Mt3ezA04Yb8U6k+KNj2ivXQtYx0aMatXvRz7fTVP9tKweSm+qT+antpWDyU31SfzU5Wl6yJ/4/HdFLsZbwwylesNICiSdQSM5POvzvZjouh6Bvo850aBj6qqPtpWDyU31SfzVt2vugWa73Ni3xm5QefJCCtsAbAnffzUVWm3ZNFZYLGQi5SpySXBlnAwMCv2lQMzjbh23zHYkq49G8yrStPQuHB9ITitG0tZywpzqO0E2+GZoG7QeDr9MiXGSmPCuKu+4ZIP+tUQl1sAcyVFK/8A1q7Kttcm44TwdxTMi3WPe1MXGKtJGtl4tuJBB0kafFPnH01dfbC4V+dP7u7+Wq8pDejXmeJ6OXYyyUqt+2Fwr86f3d38tPbC4V+dP7u7+WnKQ3oczxPRy7GWSlVv2wuFfnT+7u/lp7YXCvzp/d3fy05SG9DmeJ6OXYyyUqt+2Fwr86f3d38tPbC4V+dP7u7+WnKQ3oczxPRy7GWSlVv2wuFfnT+7u/lp7YXCvzp/d3fy05SG9DmeJ6OXYyyUqLtHEdpvynU2yX05ZALg6NacZzj3wHYalKsmnmjCcJQejJWYpSlSVFazdwjPXB+AhZMhhCVuJwdgrON/orZrXbgRmp705DeJD6UocXk7hOcbcuuod9heOhZ6W7Lr4+y5sUpSpKClKUApSlAKUpQCoF2w2a2KVPfdW0kKfytbm2X1DUPpOAKmn0qVHcSjVqKCBpODnHUa5axw9c18PXKI9aZLyEqjOJLjZQ64pLnjjTrIUdOfGGM5669HBUlO7dTRzS675b9hSTtsLnK4Gs8uI3FUZTbSIiIig0+U9K2j3oXjnisp4OtRuXf2ZOrp1SOi6c9GHFJKVK09pBqovW+7u8SPyI9olRWVIlNZSlZ6RBZIbyoqI3IGEhICTtzr8Xw9coiY7bMKauGuFCcuDKFKKnlJWrpE7ndWNOR2DFdvJVLJOvrXv1rX/vgVutxZYfC9hmxp7DMiVIKnEx3nVvqK2i0oKSlKj8U4PX6TXu78LF3heXZbaUHv15Tjrkpw5QVK1KWMDdQO4G3pqqPWm5ewbsVmxyuikXOQ4hLoUpTSSgBslIWM55AkkJIrO1YbxKttwkuRpXsgLXDbZUtRSoqCMPBJJ98RkZ89WdOSany2pp52ed0k9fhLaL8C+W92C1qtcRY1W9Dba2wD4gKfF/qqP4z+DEj9qz/FRWhwdBMW6Xl5q2yoEN9THe7cgEEgIIPMnG/VW/xn8GJH7Vn+KivHxMFCo4p31d6TfeXjqHGvwPuX7L/MVTO6p72xfsXf/wAddInQo9yhOw5SNbLydK0gkZHpFc67raQh6zJSMAIeAHq68zEx9CT4L3n0PkWoniaNPapSfbH6HPKVkZjvSVlDDLjqgCopQkqIA5nbqr1GiSZjvRRY7r7mM6GkFRx6BXkWZ+iuUVe7MNK3GbTcpAWpi3ynQ2opWUMqVpI5g4GxrXWw622h1bS0oWSEqKSAojng9eMilmQpxbsmY6VtvWm5RmO+H7fKaZ290WypKd+W5FalGmtZMZRkrxdxSvaGXXELWhtakNjK1JSSEjOMns3r8QhbitKEKUcE4SMmhN0eaUpQkmOEvhZbP6Sj/Gu8VwfhL4WWz+ko/wAa7xXq4L8N9Z8B9p/3uP8AKvexXGO6N8M5X6jf7grs9cY7o3wzlfqN/uCrYz8Ix+zn797GValZm4kl6M9JbYWtljHSuAbIzsMnz1mjWm4zIrkqNBfeYa9+4hslI+mvJsz9BdSEdbRp0rfVYrqiAJ6rfIEUpC+m0HTpPXnsrAYEsTEQzHc74Xp0tafGOoAjbzgimi1sCq05XtJZcTXpUi/YLvGfZZftshtx86WkqbI1nsFY2bPcpMNcxiBIcjt51OpbJSMc96aMtxHLUmr6St1mlU/wN8NbZ+0V+4qoxq03F+Cuc1BfXFRnU6lslIxz3qT4G+Gts/aK/cVWlJNVI33o4/KE4ywdZJ6ov3Hca4Txh8Lrn/SFV3auE8YfC65/0hVehjfw11nyH2Y/e5fyv3oheulK23LZMatjNyWyRFfWUNuZG5HPbn1H6q8qzZ985Rja71mpSpTwau/sZ7I95nvfR0mdSdWj42nOcefFZZnCV6gthx+KnTrSg6HkK0lWwzg7Z89W5Oe4x51QvbTV9WtayGpUhGsk+Xc3ra02jvlkqStC3UpAKTgjJODvXm52ibaJIjzG0pdIzpQ4leN8b6SccqjRdr2LqtSctBSV9dr7DRpWw/BkR48d91vDclBW2cg5AUU/RuDSZCkQJbkWS3oeaOFpBBxtnmKWZZTi3ZPwtfYa9K/cHGcHHbX5UFzofcj/ANsuv7Nr/FddNrmXcj/2y6/s2v8AFddNr2sN+Ej8x8uf9hU9nuQpSldB44qJiXN97ie4W5YR0MZlpaMDfKs5yfoqWqvW/wCHd4/o0f8A91Uk2muv4HVQjGUKja1R/wDZFhpSlXOUUpSgFKUoBSlYpD6YsZ2QsKKGkFagkZJAGdh1mpSu7IGWq3dOMEWubcmnYC1R7Y0248+HUjdfvEgHrJ27BzqeblsOBGHUgrGQlRAVyzy9FQjcKwX2PcJiJBeZuhSw6dekamiUjTyIOd/oBrqw8aabdWLay96+F7FXwNOFx6zcUstQbeqVMdecbLLT6CkBCQpSgvkRhScec4rUa7oSO9n7iuK70HQRloaUpIS2XFODKl42Hibk+avXFEJNstjUxFwckuW5Tjjjsicpt8JUACkKSk7HYadPZgg174d4Ut/sFHbM2S3LdiMBZac6NSQgqIISRnHjkEKBBGNq9LQwapco45N2278+62y/WUvK9jKOMZDlyt6+9G0W5+A9LfWHkrKdBGcFJIIHm56urBFYY3dIizY2qNAU7ILzLSGUSEKz0uQnKhsCCMEHlUlH4UsjLUcsvOdHDQ80v3UEOJcOXA5t1nfbGK9tcOW5iNFYcuMt5pp9p6MHpAUAUe9Snblv6T21i54G33H3ra/hYn0icbUtTSFOI0LKQVJznSesZ66heM/gxI/as/xUVJy7lDgyIseS+lt2W4W2Un9NQBP+AqJ4xeaVwvL0uIOh1kLwoeL7qjn2V5TjK17azQkb5Klw7LKkwGemktoy2jSVZPoHOqB3WSpTllUsYUW3iR2H3OumghQBBBB3BFc07rv+0Wf9R/8AxbrkxK/ZyfjWe15Ekue0o22vP2ELwhIi2mM/dJUpLBW82wjxNZUnIUsYHUQAM+etqPDcjNXqz2iY21NEtCm1B8Nl1gZwAokdoJGapdK8tVbJKx93UwWnOU9LXbZlla3jjsL+Ly3aYDj06a7cZCLlkuRJHRhxQaR77A8ZO2PPioC+zBOsVukHQlbsqW4pCT73UpBqv0pKq5Kwo4CFKamnmn8GrW1LXsOj3S5xZLN3iRlESUR2g50khSkONaUlZQnOAofjWGbEsAu8BoQ2EsF9XRO6mw26jozpCtKskFWndQ6yK59WaLKfhSUSYzhbdbOUqAz/AI86u6+k7teLnPHyXycbU5vU9+uyWu/Dja5eX4cRuzIcmQYDMhyMC4lrShKj3ykHccvF2OOW9bJRDh3tlcRuE0uRFkthhTbQOdOU5KSUkE7A7EjOc1QZ9yl3NxC5bgWW06UBKEoSkc8BKQANzWrR1lsREfJs3H05675a1nszepHQExLIGLWnvJlaFuxsve5Y1lQ6QK8bUf0gQRgYFYbQi23H2SD0SAz7upCXejbKGkBJAykkEDr1JOSedUWlRyyvqNP+Oei1yju9vhkzwntxbbBnP+kp/wAa7vXB+EvhZbP6Sj/Gu8V3YL8N9Z8t9p/3uH8q97FcY7o3wzlfqN/uCuz1xjujfDOV+o3+4KtjPwjH7Ofv3sZuWJ21sWVi1SZ4bcubbpdGElCSrZvWrV4pBTnkffdVeI5Mu2WpcW+s21FvaWiQC7pWhWokqSn9PII5VTaV53K8D7N4C8nLSzbvqT3r3O2e5bMi43HiONCt0ePGjh+S9a0MLkd8EpQCMEFA21fTWJcqP7YcCR07XQpMXU5rGkYbQDk8tsVU6UdZt3ZMfJ9OCdnrTT9tvdbUdJ75hR5VqC34UYpufSdGxM6ZJTpwVqJJ09QxnG9aVvktOO2S5NXiPGh29gIksKe0rCgSVYR+lqyOVUOlW5d7jBeS4qNtPxnvvv8AGovtrlxH7IlMiZFbioQ9pWiSWZEbUVHToB90Bz2ddQPA3w1tn7RX7iqgKn+BvhrbP2iv3FUhPSqQ4WIxWGVDCYhp30k/c/n4dzuNcJ4w+F1z/pCq7tXCeMPhdc/6Qqu3G/hrrPmPsx+9y/lfvRC1cZ1zsr9lk2hp5z3CK0WXVH3NbiNzpGMgnWvnVOpXmRm4prefb18PGs4tt5Zrry8e0tVzetNxQq7eyymnDDS0IaEKC+kSkJ05xjRtms144qaevLzERmI3EekNKdktoVreSkgjJJ6j2Dqqn0q/LPYYLAU8tJt2yXDV7rZXJWZKYc4tflocBYVPU4F9RT0mc/VVkst4tkbiG6zXLmWUOzwtKclKXWtaiTskk8x4uw33qjUqI1XF3RatgoVYaDbta3u+Rek3mA1a2W/ZNrvZqNJbehBKsuqUtfR42x1g89vprYRxFa0SrmtmRH1uSg5l5TiUPN9GBp8UHVvnxT21z2lX5eRzvyVSd7t533bXfcW+RdoD/BQhKloS6htIbZaUsZUF5wpBGnlk6wQTtVQpSspzctZ24fDxoKSi9bv2nQ+5H/tl1/Ztf4rrptcy7kf+2XX9m1/iuum17GG/CR+deXP+wqez3IUpSug8cVERLbIZ4ouFxXp6CQy0hGDvlOc5H01L1hRLjuS3IqHUqfaSlS2wd0g8j/VVWk7XNac5xUlHarPquvjYzUpSrGQpSlAKUpQCo7iGK9N4bucSOjW8/DdbbTkDUooIAyfOakaVaEnCSktgOfHhGauS9LXbUKkd+wFtuFSCoNtobDuDnYbKBHXjrqOc4MuhhRY5tTqWWVSm3G4/e5KitYUh0a8gDThOdlDG21WO4SLtc79do8W9i0sWlptSfc0KS4pSSoqcKv0RjG2OuoaTxNeGb1e4guAWl4IYglCRpQ6Qzuntz0pVuT72vo6NXFSsouN7J2zyySXDU79pi1E2pnCEl608SpMBMiZLU2mK66UFxxKW2x77O3jJPZuK15PC97d4nceiW1mCykyG2n2A2hIQpgobUSDrODpyMADqB5jJZLjfeJm4cRN8XAUzbGpTjqGkKW+4sqGTkY0jTyHbWpJ4l4im2233NEmQzGEPXIXb2W3ih0LUCtxtW/RkJzt56tDnUZOGlG+rO+V1Zdqjla/wHo6/HjM3HeHJz/DJhxOHhbHW1xi+lDjKjMDfvsDdB7Rr59YrSncIXUQ4BhW5915tLmlMoxlpbKnNWlSNglPXls5HLFdIivJkxGX0LDiXW0rC0jAUCM5ArmdovnEz7BmNyrm80I0pclciKlLDelKtBbXgajqA7eusMLiMRU0nHRWi7531tNb+G3qJcVkWzi2zyrk/aJEeGl9yK+rWoactBTakhY1EbBWlW2+w7KqNwsE2DYXHHLImGiPBajSUBxB7/d6Zs6tjuNlbqwfHqXhz73fO+Ft38WxNtiR1kqaQUurW0FqW4T+j1bY5Gp7i5WrhN1RUleVsHUnkfdUbjzVy1atXDUlRbT7cr58Ft426yUlJ3PPFficDTQlroMRgOjBHicvF27OVVDuqbixE+Rd//HVz41+B9y/Zf5itqRZbZd40U3CE1JLTfiFxOdOQM4+ofVXg1YOo5R3pe9nuYLErCxpVmr2lL/8AMUcCpXdfA3hv5mi/Yp4G8N/M0X7FcnMZbz6HzopdG+1HCqV3XwN4b+Zov2KeBvDfzNF+xTmMt486KXRvtRwqld18DeG/maL9ingbw38zRfsU5jLePOil0b7UcKpXdfA3hv5mi/Yp4G8N/M0X7FOYy3jzopdG+1HCqV3XwN4b+Zov2KondKZRwaYNwtnD9slQX1Fl1p1lRKXOaSCCOYyPo89OYy3jzopdG+1Fd4S+Fls/pKP8a7xVZ4Ys1ll2q33hFpgMyXG0ugxla0tqPUFdZHL01Zq7KFJ0o2bPnPK3lCOOrKpGNrK3e/mK4x3RvhnK/Ub/AHBXZ60ZVktM18vy7XDkOkAFx2Ohaj9JFTWpcpHRuZ+TMasFX5VxvlY+faV3zwZ4f+Y7b90b/Cngzw/8x237o3+FcfMX6x9J50w6J9v0OB0rvngzw/8AMdt+6N/hXNbbPhyO69LtrvDLCbStvvZoKt4CUqSThz3vJStQz1+L2U5i/WHnTDon2/QptK754M8P/Mdt+6N/hTwZ4f8AmO2/dG/wpzF+sPOmHRPt+hwOp/gb4a2z9or9xVdd8GeH/mO2/dG/wrLHsNmiPpfjWmCw8j3rjcdCVJ6tiBtVoYNxkpX1HPiftHCvQnSVO2kmte/2G/XB+MVoHF1zBWkHvhXM13ivJbQTkoST6K6q1LlY6N7HieTPKDwFZ1FHSura7bU/gfN/St/HT9dOlb+On66+j+ib8mn6qdE35NP1VycxXrHvedMui7/ofOHSt/HT9dOlb+On66+j+ib8mn6qhLhxDFZlqt1shm63Ee+jsadLPndWdkD07nqBpzFesPOmXRd/0OF9K38dP106Vv46frq88Idyh+38dybtd2mO9Y6g9FbZ3bLit8AHfCOQzzODXVuib8mn6qcxXrDzpl0Xf9D5w6Vv46frp0rfx0/XX0f0Tfk0/VTom/Jp+qnMV6w86ZdF3/Q+cOlb+On66dK38dP119H9E35NP1U6JvyafqpzFesPOmXRd/0OadyJSVS7tpUD7m1yPnXXTq8pQlPvUgegV6rtpQ5OCifNY7Fc7xEq1rX2eywpSlaHGK1WrfGZuL89CCH5CEocVqOCE5xt9NbVRUW6PP8AEk+2qQgNRmWloUAdRKs5z9Qqrayua04zalo7Fn1XXxsStKUqxkKUpQClKUApSlAQ924Ust7lplT4nSOhIQopcUjWkHOlQBGoeY1C3l/g2z3kJuDTqJTbiZpKGnVpbOnowolIIAwnly2zVyqoXThV698VzXX5U6JBdgtNKMZxKQ/4y9SFZBOMEdnOvRwlW7tWm1FLY+rJaysluRp3VrgVqA23KafLFsAjByOHiUoKAvSpSNynSQd9t6kWrJwpxPCjS24a0MtI73bHukfUgfoFOxUnfr7awOWKY3aOLYjEQgTElMNAI8cd7pQMb9oxvWpxhYLjOTbHIlvXJeYjdGEqS242F+KcKCiCjl79JyOyuyLjJxjGq097lqyTeWWtu2spq2FviW1EOdJkNrIQ8htCWRnS2EAgYGcDn1Y5CvyPZ4Ua0G0tNFMQoWgo1EnCs5359Zr8h3FclMxBjLDkNzolAEEOK0JV4u/87G9eEXOWvRqs8pGroc5Ujxdfvs7/AKHX6ds15TVVt3e7avZ3GmRqTOC7BOUwqRB1FhpLIw6pIWhPvUrAPjAefNanE9vESx3R8OEiTIjKCN8ICVtpwN/N1Y/zNoqC4z+DEj9qz/FRVZV6so6MpNoWRJ3O3s3W2vwJBWGn06VFBwR6K2EIDaEoTySMCsUxUlEN1UNtDkgJ9zQ4rSknzmoLv3jP5ot33k1zSkovUddKlOrCykkk9rS95ZKVXmJfFypDYftVvS0VgLUmQchOdyNuypuUp9MV1UVCHHwgltK1YSVdQJqVK5SpQdNpNp33NMzUrTtblxdiarpHZYkaj4jKypOOo5rRuUniRuapNtt8J6MANK3XilRON9vTRysriNBym4XWXFW7SapVb794z+aLd95NStpdurrCzdo0eO4FeIGXCsEY66hTTdrMtUw0qcdJyi+ppm/So9927JuzLbEWOuAU+6uqcIWk78hj0VsTly0Q3VQWm3ZAHuaHFaUk+c1a+sy5N3Sus+Pv3GxWGTEjzW0tyWUOpQ4lxIWM4Uk5SfSCKge/eM/mi3feTWSNL4tVJaTItdvQyVgOKTIJITncjaqcotz7DoeDklfSj+pfM8zLXLsspy6WBvpEOHXLturCXv57fUhzt6ldeDvUta7rDvEMSoTutAUUrSoFK21DmlSTulQ6wd6zyVPJjOqjISt4IJbSs4BVjYE9QqvG03deLzHRGg3kbOsocJYloB2SvbY9iwMjzjar3zsc2g9HSv8APsLNSqlH4kv1zkvtW61xEKjlKXo8p8peaURnxgOo74UNiN62e/eM/mi3feTVHUSep9h0RwkpJPSj+pFkpWla3Li7E1XSOyw/qOEsrKk6eo57edfjzt0TdmG2YzCoCk+6uqcIWk77AY36vrq18rmPJvScbrLirG9UEz8PZf8A5Wx/FdqWmKkohuqhttuyAn3NDitKSfOapjcrinwukLFtg99GA0FN9OdIR0jmDntzq+oVEpaOwvSoOqrqSXW0veXqlV5iXxcqQ2H7Xb0tFYC1JkHITncjbsqblKkIiuqioQ4+EEtpWrCSrqBNSpXRFSg6bSbTvuaZmpWnbHLi7E1XNhliRqPiMrKk46t60blJ4lbmrTbrfCejADSt18pUdt8j00crK4jQcpuF1lxVu0mqVW+/eM/mi3feTUpAlzkW9yRe240NTaiSUO5QEYG5J5ddQppu1i1TDypx0nJPqaZIVH3a+W6ytJXOkBCnDhppIK3HT2IQN1H0CoUXy9X6S43w+w01byAEXOQ2rBPWUIONY7Dy85rbasBs0d6bb2zcbu4AFSZ7uVrGdxnGEjn4qQBU6Wsz5J3irrPiu/cYe9r7xHvMW7Y7cRtHZcHfTo/nrGzY8yST/OFTdvtsK0xExLfFajMJ5IbTgZ7T2nzmoXv3jP5ot33k1kjS+LFSWkybXb0MlYDikyCSE53I251XlFufYbvBySvpR/UvmWClYJipKIjqobaHJASejQ4rSknzmsdtcnuw0quTDLEjJyhlZUnHVvV752ObQehpXXx7DbpUJcZPEzc1abfboT0YY0LcfKVHbfI9Oa1u/eM/mi3feTVHUSep9h0RwkpJPSj+pFkpWla3Li7E1XSOyw/qPiMrKk6eo5rw67dheG22osdVvKfHeLhDgO/JOPRVtLK5jyT0nG6y4ru3khStaeuY3CcVAabekjGhDqtKTvvk+jNQnfvGfzRbvvJqJTtsL0sO6iupJdbS95ZKVBQpXFK5jSZttgtRyfdFtvkqA8wqXlKkIiOqitocfCCW0LVhJV1AmpUrq5WpRcJKLad9zTM1V63/AA7vH9Gj/wDuqYgLmOQm1T2m2pJB1oaVqSN9sH0YrQh22SzxRcri4EBiQ00hrCsk6Qc5HVzqss9F+NRrRagqsW9luv0lqJilKVocgpSlAKUpQClKUApSlAKUpQH5gDlX7SlAKguM/gxI/as/xUVO1QO7BMvNu4Vbl2t1IYD6EyUFsKyNQKFZ6sKAHn1UBf6VHcPi5+wMI3hxLlwU0FPlKAkBR304HZnH0VI0ApSlAKUpQClKUApSlAKUpQClKUBE3ixi4ONzYb5hXOOCGZSRnbrQtP6aD2HlzGDXm0X0zJC7bcGBCurKdTkfVlLic46RtW2pB+scjipio+72eNeI6EPFbTzKukjyGjhxhfUpJ/yOx5EGgJClc/tfdDdHHbXB9w72debStpyYySEuOgAp2/ROAoEb+NyNdAoBUEz8PZf/AJWx/Fdqdrllq4Blxu7DKnLW8bUygS2crOkqUTpb9CVajjzDtoDqdKUoBSoriW+I4dsEq5raW8ppHubSASXFnZKdvP8AUM1SOA7lxBxzaVs3i4PQkRHCl9DCC09JCiSMrPvU428XfbmKAuE/iZpqYq3WqOq63FPv2GVgIZ87qzsj0bnsBrCzwy7cXkS+JpKLg4k6m4aE6YrJ8yTusj4ys+YCpm326FaoaIcCM3GYRyQ2nA9PnPnrZoD8AAAAGAOQFftKUApSlAKUpQClKUApSq7ertPi3Ux4zraGwyhe7eo5JUO3zCrwg5y0YnNisVTwtJ1auosVKqHs7dvlDXqf+tPZ27fKGvU/9a35pV3Hk+cWA9Z9jLfSqh7O3b5Q16n/AK09nbt8oa9T/wBac0q7h5xYD1n2Mt9KqHs7dvlDXqf+tbNsvNxfukZh91tbbqlBQDeDshR557RUSw1SKbZrR8uYOtUjTg3d5aizUpSuY9oUpSgFKUoBSlKAUpSgFKUoBSlKAjOIXHGrK8ptxbatbY1IUUkZWkHceaqm8FyGi0/IkutkglK5CyDg5G2e0CrXxJ/Ibv7Rr+ImqtXpYOEZQd0fE/aTEVqWIgqc2stja2nrppPy2Z96c/GnTSflsz705+NeaV28nDcj5nnuK6SXaz100n5bM+9OfjTppPy2Z96c/GvNKcnDchz3FdJLtZ66aT8tmfenPxp00n5bM+9OfjXmlOThuQ57iukl2s9dNJ+WzPvTn406aT8tmfenPxrzSnJw3Ic9xXSS7Weumk/LZn3pz8adNJ+WzPvTn414V70+iueWJN6VbBcNc9DHeDqnnZEzpEuq0+KUJySkg75rOahF20Tsw88TWhKXLNWtrbzvfjwOjdNJ+WzPvTn406aT8tmfenPxqmR+JJzb9riNuMvNupYZdKmlqUla29WVLyBnkcbkjrFRybld0RbZMkzi822mXIU2gLQXOjVyUQrfzdQHUao5Ul+U6Y0cc9dZrdm88m/gdE6aT8tmfenPxp00n5bM+9OfjVPkcR3eKDHV3k7IcTHcbcbQrQkOL06SNWTjmDnfsr3Kvl7YuLkZBhKS1JYjFSmlAqU4keN77YAnOOzbPXVr0vV7jJQx7/8Alf6nw+aLb00n5bM+9OfjTppPy2Z96c/GqnPus2TwLNmKUG5TS1NlTBKASl3Tkb5GcdtYHr5dGLxKclsJt60wmw0yt0voKi7gK0oG6jnGBvsN6N0lb0e4QhjpJ2qu6bX3nstxu9exE4eGbMZyJ3eKEyW1BaXkqUFBQOQcg8875qX6aT8tmfenPxqpQuIrrPVb2EJjNuvyJDLq1tKwA31hOrYnsJNaSr7eZL0Ge2tj3WLKeZjI1fo4wlYz4x257YJNQ3S9Xu8byypY+9nVa1/mfH/Fl66aT8tmfenPxp00n5bM+9OfjVLRxnIffWG0xm2ipTrTrgVjoEpXlRwfjoxt28q/Y/E93kFMZKYyZCpzcfpFx1oGlTRXnQVZyMdu/mppUXqXcHR8oq96jVv4mXPppPy2Z96c/GnTSflsz705+NVm33+5TL85G7zzDQ+5HU4GyNJQPfatW+T1Y2yNzVkrSMacldLuOOtWxlFpSqvNX+8/meumk/LZn3pz8adNJ+WzPvTn415pVuThuRjz3FdJLtZ66aT8tmfenPxp00n5bM+9OfjXmlOThuQ57iukl2s9dNJ+WzPvTn406aT8tmfenPxrzSnJw3Ic9xXSS7Weumk/LZn3pz8adNJ+WzPvTn415pTk4bkOe4rpJdrMseRJTMi/6ZKOZDQIVIWQQVgEEE77VeK55IkOREtyGYrkpxt5tSWWsalkLBwMnr5VqcJ90jiC+cQ3NiVw5KLcZCQmHHCEuMnJyVlxSST6PqrzMZFRmrI+3+zdWpVw83Uk3ntd9iOnUqA8I7l/uheftxf/AJqeEdy/3QvP24v/AM1cZ9KT9VHiD+Xl/wBHb/eXULxz3Qb9w/Ht8iJw/LilyToWiYGlJeGk+KOjWpQP/wC+atgXSVeXUTplrkWx5yM3mO+RqG69+3HpAPmrqwn4qPB+0P7hLrXvPdKVQ73d7vHvN0VHkzkMxHGtJQ0hUdsFKSdf6WNydq9Wc1BXZ8DhcLLEzcYtKy29aXxL5Sqg/dbjIuz1sYmlhL9w6JD4SCW2wylZCc7ZJ7a8Pz72iJOtzEwyZESWhvpkBCXnGyjUQkHxSsf4VXlVuN15Pm7XkldJ7dTyvqtrLlW1aP5chfrq/hrqvcNTXJtqy9IeedadU2vp2Q04kj9FQG2QCNxzqw2j+XIX66v4a6rVd6LfAvgKbp+UacHski50pSvEP1IUpSgFKUoBSlKAUpSgFKUoBSlKAi+JP5Dd/aNfxE1Vqu02G1PiqjP6tCyCdJwdiCN/SKjfBe3/AB5HrTXZh8RGlFpo+a8s+SK2OqxnTaSStnff1MrdKsngvb/jyPWmngvb/jyPWmunntPczxfNjF+vHv8AkVulWTwXt/x5HrTTwXt/x5HrTTntPcx5sYv149/yK3SrJ4L2/wCPI9aaeC9v+PI9aac9p7mPNjF+vHv+RW6VZPBe3/HketNPBe3/AB5HrTTntPcx5sYv149/yK3WBuHGahiG2yhMcI0BoDxdPZVr8F7f8eR6008F7f8AHketNOe09zJX2Zxi1Tj2v5FMFjtQkIkCAwHmwkIc0DUnT73fzYFe2bRbmF62obKFZWrZPWrGr68Crh4L2/48j1pp4L2/48j1pqOd0t3uNH9nse8nVXbL5FNZslrjtFpmAw2hS0uFKUAZUk5Sfo6qyrt0NbqnVRmytTiXSojcrT70+kVbfBe3/HketNPBe3/HketNOeUtxD+zuPbu6i7X8ipG3QzEXEMZssOKKlt42JJyT9e9fkq2QZqlqlRWni4gNqK05ykHIH171bvBe3/HketNPBe3/HketNOeUtxC+zmOTuqi7X8ioR7Vb4pbMeI010SlKb0JxpKhg49IFeWbNbI8pUpmCw2+oklxKACc8/rq4+C9v+PI9aaeC9v+PI9aac7pbifN3H5/tFnxfyKcizW1tISiCwEpaLIGgY0E5KfQTX5Hslri6e94LLWhYWnSnGFAEA+nBP11cvBe3/HketNPBe3/AB5HrTTndL1fcT5vY/Ncqs+MvkVFNrgInmemGyJShgvBA1Hq51tVZPBe3/HketNPBe3/AB5HrTUrGU1qTKS+zWNl96cX7X8it0qyeC9v+PI9aaeC9v8AjyPWmnPae5lfNjF+vHv+RW6VZPBe3/HketNPBe3/AB5HrTTntPcx5sYv149/yK3SrJ4L2/48j1pp4L2/48j1ppz2nuY82MX68e/5FbpVk8F7f8eR6008F7f8eR60057T3MebGL9ePf8AIrrP+2Rf6Sz/ABE1dxHZEhUgMth5SQkuBI1FI5DPPFRjfDUBt5t0F8ltaVpBdOMg5H9YqXrjxFVVZJo+m8j+T6mBoyhUabbvl1ewUpSuY9kxuR2XnG3HWW1raOptSkglBxjIPVtVV4g/l5f9Hb/eXVuqo8Qfy8v+jt/vLrqwn4qPB+0P7hLrXvNCoeZwraJ812XJYcW48UlwdMsIXgADKQcHYCpileu4qWtH53Tq1KTvTk0+BGyeH7ZLbfQ9G1CQ6HlnUQQsAJCgQfFOAOVePBm0exvseImGek6XOtWvX8bVnOfPmpWlRoR3F1iaySSm+1mrb7dFtcXvaG10beoqOVFRUTzJJ3JqUtH8uQv11fw11q1tWj+XIX66v4a6zrK1Jpbjr8mylLH05Sd25IudKUrwz9UFKUoBSlKAUpSgFKUoBSqT3VVqRw1FKVFJM1I2OP8A+NdcnW+70avdV8j+ka5auJVOWjY97yf5FnjaHLKaWdtR9HUrCl1DUVLjq0oQEjKlHAH01kQtLiAtCgpKhkKScgiuo8E9UqqweMVvcTXODJYQ3BjtuKivJzqdLOA8D1bKUAMdhrBbeIuKJcAXh+1QE2uTEckM9G8ousgJ1I6QHZWrb3vKg4FxpXLondPuy4El5abPMWm3CYnvJTigwrUkdG6Cdj43UeqrTxvxPM4aiw3IzcZCJDpQ5LlpcUyxtkatAJ3OwPKgLRSqqnjlhiBb1S4b0iVMirk6Lbh9GlBAUQrI23z/AFc9qzJ49sK7hHiNvOLEgNYfSj3NJcGW0qOcgkEdW2RnFAWSlQ9l4ki31xYiRZqGdGtqQ6wUtPpyRlCvo5HBxvioqJxBxHdLk6/bbZCdtDE1URet4pkLCVaVuJ/RwDnY7nFAW2lVs8c2sPOISxNUhPTJZeDPuchbQJWhs53I0q54BwcE15kcf2VgI098PdIyy6gNIB1F3JQgZI8bCSd9gBzoCzUqtMcd2mU+w3Haluh2KZSnEtDSy2lSkqK99iFJIIGfNmt7h/iSLxHFckw48pttGMF5sALBGQUkEg+jOR1gUBL0qhxu6NJecgLcsshLcl6Y2ppDet0hkjGnxsdurPWDjz7vthWxBefUpbsZQjd7JbawtZeSpQGVKA5JPPGMddAW+laTV0adswugYkhos9L0RZPS4xnGjnnzVCDj62ltIEC498ql9596dCnpUuaNYBGrGNPXn04oC0Uqtx+OrRJlyIzKJS1sodUjSzq6fozhYbAJJIO3IZ6sipGx36NfmZC2Gn2FxXiw8zIQErbWADg4JHIjroCTpSlAKUpQClKUApSlAKUpQClKUApSlAKUpQClKUArWft8KU50kiGw8sDGpxpKjjsyRWzShDV9Zpew1r+bYnqE/hT2GtfzbE9Qn8K3aVN2Rox3Gl7DWv5tieoT+FPYa1/NsT1CfwrdpS7GjHcaXsNa/m2J6hP4V7ZtsCO6HWIMdpwcloaSkj6QK2qVFxorcKUpQsKUpQClKUApSlAKUpQFC7sElEXhSK65nT3+gbD/AIblcb9mYrniAOAq2BIAH+Nda7uPwJjf+YI/ccrhDbZdcS2kgFZCRnz130PJdDEw5Spe/BnpYXyzicHT5Kla2vNH1o/Bi3C3GHNjtyGHEALacSFJVjB3HXuKyR4rMOIiLEaQw00gIbQhOEoA5ADsrFNfkQbYt2NDXNfbSNLDa0pKzsNirAHbvXph+S/bUvriqjSFtaiwtQUUKx70kbHfsrgPNK1B7nltgOW+Qy84ZUVSzIeVk99BYIWFJzgZ1Z27K/YPAq4elhd/nPwY7DjMOKsJCWErSU7kAFzAO2rlVMsjtsQeHZdvlvOcUyJoTdEdKpTykeN0wcRnYDq26his/ALsSHxew0xJjXFc1p4mXHkOB/Y5/wBJaUThWdgdt/TQF6e4SiOcHHhxtwNJVGQwp9DYClaQBqI6zt/XWe+2STdRHchXeTbJEcqwtpKVoWlQwQtCvFV5s8qrd04nucHuhs29U1It6nmWQyyGlqytP6aThYyTkKSSABuOdQcbjq/M2tE1u5s3SQ7EmOOwwygGKWj4izp3wds5552przBOngabDuFri2uc/GjRoElp2ZpbUorccSogpPb4xGBgYH07sXud26BdGJcVxAZbQ0lbT0Vt1SujQEpIWoZRsBnHWNsVBReKb84xFjS7xGjMSZnReygXHdLaeiK9KtPiAlQwMjke3etHiR9+6MXBlN0afbcj2sLlR2EJEgLfUk557cjjONsciRQcS+8P8PP2BIjpuz8iCy30caKttADSc5GVAZUQNs9laZ4KKLot6PeprFudl9+O29vSEqdzqJ141BJIyUg4quJusq2XWVaY89i0xV3RTCp3QNgNhEVtSU7jTlR6z1DA6qluMZD73BFulM3sAKlRC5NYSlKHUlxIKsHIA31Y5bYO1Ab8HgxqHcI7puDzsGG+7IiwlISEtLc1ZJVzUBqVgHlnrrRb7mdtZtLsJuQorM4TGnHWkuBvA0pbKVZCkhJIwe2oSDxrxM4i6zMx5CWI8paYpW1raU2rCCEJOsjbxtXaMYFZp0mTcBY2mOKmbk8bu0RIaZb1R9UdwkEJ8U9ZGRt15oC027hNq3yu+EysL7w7zPRMIaHvysrASMA5Vyx9deOFuD2eGH5j6JXTuSwgL0sIZThOcHSnYqOo5PXtVN8K+J5EGS4i7JaXb7XIkrIjNnp3GpDjYzkbBSUDOPoxUlcuLrq1cpS257MdcVyIhi1lpJVNS6E6iCfG/SIGnYad80DJuDwWmFOYkeyLjiI7stxpstgaQ/uoE9eDk/TWmz3OGWLa7CRclKDjUZs9JGQ4hQZSpPjJVkEHVnqwQN6rVt4hn2+yMxWru1ammYkuY2462lXfTgkuDo/G6gAMhPjeMMVtyeMb27J1qujdsf78gxxbCygrKHUtqWvKvGzlSh2AJPXvQai4McKsR+DFcMtTH0tFhTXTpICxqJJIxsBk8uzao20dz6PaZTD6J2roZgl6ER0Np1dCWsAJ2Awc/jWHhfiefNlS/ZeWhiPZo/e89xxKW0LkhxQKs4GBpQDtgePUlxNMuibzY7bbZ/eQnuPJdcDSXDhLZUMBQIzkU4jgaI7nMRDdwZZm9EzMS6EFEVoOtFatR91xqUOYwTyODmpXhbhdrhePLZakB1Mp4PEJZS0lB0JSQEp2A8X/AP2qUON70/aGpTt2j291m0iWhK2UHv8Ae1rSUjPV4gGE4OV1P8DSJb0ziNcua44936Fd7Oacs5aQRyGcb6ezxe3NNQZc6Vy2zcb3P2MZmS763ND9pflSA3FQVQVtlISdKcZzqOyjuRtgV6tfFXEF0dYt7d3UhTl2EbvktMLc6Ixy5g6MoyCOrPYc0B1ClUTh6dPt3D/FcoTHLnMhzZSkNOBOQU505CQDvjl5tqg73erjcOGL1CTfk3JgW5iSqWw0hPRqWvCmTpGMEb/GA5mgOr0qjcaMNx+HrVwoy1IfTLUG3ERWx0hZaTqUQkYA30DbA3qKlXZm88PcKm/uqYti3nI921rLaembQUpS4QdgVpJ325UB06lcfn2u2XidZoPD0NN3goTO6JudJWhsYU3uhY3KATt9O9Wfhi3S7PxZBt06T3xIj8PpQ44CSCemOwJ3IHLfsoC80pSgFKUoBSlKAUpSgFKUoBSlKAUpSgFKUoBSlKAUpSgFKUoBSlKAUpSgFKUoCrcfWuHeLREiTmy4yZYVpCincNr6xVEe4C4dbZWtMNYUlJIPTr2P110jipDiocQttOuaZOSG2ysgaFjOAPOKrT6H1R3EiHLJKCAO9XOz0V6uEmo0rNnxflueNjjEqLlo2Wq9tu4vzO7DZPxR/hXutOXBFwtSoa35MbpEAFyM6W3E4wdlDccqyw4whw2YweeeDSAjpHlla1Y61KPM+evKPtCvRuKbSuJb7q3CS27dJfehPihaTlY1KPZ4n9YraY4k4US1JuMe5W9KErSh99Ckjxj73URzzvg1WmO5p3rbrY7FZgM3mNNU+/MAJ1IJWQOW58ZGxxyrFA4Bv6XumuEmI6tb0FxZ6da8hhxSlYygAAgjCQABy85IMsd24s4ct8iM6p2LJmuKZS2lJT0qUOqACt9wMKzjspZX+F7FbEMRLgwptEYSOmWpJWplazhRIAyNSsCo268I3iTdpRiqgKhS7lGnrceUoPILegKQAEkEYRkHPWRjfNaEfubT2rm08uVGMZE0goyrJhBaXG2+XvgtA82Cd6IFoF54TDUyEmXbejiArksjTpQAcEkctjsew17RfOGH3ozKZtvW5MA6BOU5dCVEJx5tQOPONqp8vgHiSc9cHJU2G6qREkxm1F5YHujiVJOgIwgYBBAyc75PVK3TgmTL4o9kEdG9DeEfpWlTHmejLRyCEIGlfURqxg0B6uXF8YTH4Ebhl25kl5x0I6IBQaUEKWQojPjbdu1brHGNiuDBTIShmAYDMwuSQkI0OKKUpI7cp5ejFRqO541OmW5V7aYlsR4TqHkJdWkqkOOhZUMYyndfM9Y2rNeeEroufIfsTsWI0YcWO03qKMJacUopBCTo8UgBQBII5UBtv8ZcKwJsYofjqM9hx4SGUpIKG+eSN87EAeY8qx2bi3hmVaIU14QrWmW4VxmXlthROdOvbkd8Z+io618F3m3C3EuQ3FR1Tku6n1nxX1BQIJSSSMb5+uvB4IvTFtbixnLe4qRZm7ZKL6l4Z05ytvCfG98djp3AOaAsb984ViSJEV+Zb2nGhofQrSNIURsrsBKhz7ayQb5w1dpzCIU6BKlhsqaCFJK0pGxx1j0VBeBExESXHS7HWHrrGlpUtRyppoNghW3vjoVty351mt3CM2He4k5S43Rs3GdKWEqOooeGEDlzG2f86AmXZ/DyLkzZnXoImBWtqMrTqSo5OQOonc9vXUE81wne+IVTDxGXHWCH3InfKOjT0R5nI1AJIBICgMjJG9e5vCt2d43bvMN9iNGLzbjykPOBToSnSUqaIKFEjYLBSQDyNVqDwXduJeHmozyo0GMy9PU05hQeWtxxxIChgAJ68g7jG21AWeIvhGLwxNU5em5UG4SF99Sn30lTrigMpOAN9IGwA2GfPWW98b2e0tOy3ENyhHSwqOtpxCi4XtQGk58UYSTk7EZqMicGXaE5GujDUM3JiSpxbT8999t5Ja6PJcWkqCgOW3Las0rg+7y35L7i4CFv+xxKWdSUJLDhWsAYOBg+L/XigJJriHh9NvRJuIgwG48hTLSXVtqCVpAJ045Hf6K2rzfrNYExpUkoT7JvIYS62B4+eSietIHpqB8Eb1Dujt0hG3yHlS5i0sSVrDZbf04JISfGGjcYwQSM1NX+0XG4262CL3p33BmMyVIUVNtL0ZyAQFEDfbY0B4sfgzZ2F2GHOircgsaHw4tBc0J56yAM4zv2ZrXd4r4VhtwpMZyC5HeldAX2dASwoNqUCezxRgemoRXc3lPuXNh59BZkCUY0nvx5Smy8ScFk+IOZBIO+AdqmTYr3cJNrkXFm1MGDPTIUiKpZ1JDSkZyUjKskYGBgDmcUBvnijhaIUPG629ozEJdC9aR0qSSkKz17gjzYrMq48OsTlWUvwESXvGMTxQVkjO6eskDPbVSZ7n1zRb7gwp2EVybW/DaOpWErXIcdGfF2GFp+kcq3FcG3UynIwdhmA/cWrgt8lXToUgJ8QDGCMoGFZ2BIxQEvF4usL9stt3myI8BU5vLCZK0hYSTvv2csnlyrYlXnhuLKVapMyAh55SSqMopytSztlPWSSPP11VmOB75BtUePGctzzrlo9jJPTqXpbGpR1ownxvfHKTjOBvUXKtcu3XtqwRUd9IVdYMrpHGHelw2ltKjq06NICM6tW24xTaDosSdZ5C4YhuxlqdZUuN0YGejBAUU9gyQPqpc7tZ7M43IuUqNEW6kpQ46QCoDcgH/Kqbw5DmwXOIbxb2FSEMLVHtTTzS0AoKy4sAYzjWspB5eIOoVabrZnrhxBZbgktdDb1PF1KycnW3pGBjt9FNgMznE1iaditOXeGlcxIXHBeHuiT70jzHkO2vy18R2+73S5W6I4VPW1wNvA9ZIzkebq9INUuJ3Pb3EsrlqD9vW3cIjEeW6pSypjoyd2xp8bIO2dODvVts9pm22/XqQ4WVxJ7rbzSkrPSAhtKCFDGP0c5z18qAyMcXcOyQ8Wb1DWGGy67h4eIkbEn0f5inhZw+YzEgXeKWpCy20oL9+sYykefcbeeqHZeFeI7nwzblsLhQFQ2JCYylBXSLU45uFgpwkYB3Grcg4qZsHBV1t93hzZr0dwMz5MpeH1uqw60lAGpSRkgg5O231ACyWXia2X5iY/De9zhvLZdUvAA0/peg7n0Vo3Pj2wQLG/dY81qe204hrRHcSSVqOANzsOZz2A1iY4XmrsPENmkvMtt3N+Q4w80olQDuT4ySBjGeonNR0jg69XFD8iWq3R5KkQ2ENRlrLZQy8HCokpByRkAY25ZoC4d+LVbmpSGNTjiEqDWsbZx19gzzH0ZrzcJz8S3mRFguTn8ApjtLSlS9xnBUQNhv8ARWZ1C1vJGSGyM5GNiPxz/VUcbbiTFXDbjJ9jiWkJ6MJIQoJykHSdKQnBwnmQkZAByBFSeOXEJgpi8O3GRIltOuqjK0tONBtQSrOogHc9Wc1v2Hi2FxC8URWnUI70ala3MDZZUNOO0FBrXvfB0HiG5w5V4bDzMVDjYa6RSQrXpIO2DkEYxnGD9FeFcPrtdzmS4TaG4q4saNGZZOnoi2XNyCCNtYxsrfq2oCzF1sKSkuJClkhIJ3URuQPqNfheaClJLqApONQ1DIzy+uquhFxMNgF1zLj6GwWXTuguIJOUtt4ASlYGx9/z3r9kyFt3CS064+t9yQdKGXJGAlLTOcBsHABXzOOdAWulVOfGMjh1CFoVJCX1E5C5JLgUpJGFsukAAHfTzGNga82BqVDXL6JLDakxEkB5ZbS0nLhRlAjtYBVrJ66At1K0Hun9lYSws9D0TvShKvFKvEwcfQfr89Qqe/bhEjKYEmSFyJagtM1bCNHTHRlSQSRpxpHLFAWmlV6O3rvjjYTdHksKaGtMvDLWEJOCOkBXnmTpOc71qRlz3oLEgPPoAtuVS3ZKg2hR1DVoxhahsTk8sUBa8g535c6/ar0GVJVJfdiNhXfsppRW8MaW+90EqwPOnT6T5qyPX2SuCJMKP0uTIQgJZW50i0KKUYKdglRGckgY+sATtKxsdL3u305SXdI1lCcDVjfAycD6TWSgFKUoBSlKAUpSgFKUoBSlKAUpSgFKUoBSlKAUpSgFKUoBSlKAUpSgFKUoBSlKAUpSgFKUoBSlKAUpSgFKUoBSlKAUpSgMbzLchstupC0Hmk8lDlgjrHmNY0xhFaCYTTTaQNmgNKTzxjHLfrwa2KUBgZMlYBkNtN4G6W3CvJ9JSP8AD/Df2+wiSyplwqCVDB0LKT9Y3FZKUBHixWwFBEUAtshlBC1ApQCDgHO3Ib8ziv16zRXnVuKXKQVrK1dFKcaBJCRvpUM7JFb9KAwRYbMKKIzIWGwVHxllSiVEknJOTuTWGPaYUZp5pLSnEyP9b07inisYxglZJIx1cq3aUBgkwosxkMyozL7QOQh1sKSPoNY5Nqts1DaJdviyEsjDYdZSoIHYMjbkPqrbpQGFiJGipKY0dplJwCG0BIOAAOXYAB6AK112S0uKaUu1w1KZSENlUdBKEjkBtsB2VvUoDXet8KQHQ/DYdD2OkC2knXjlnI3xWncLOJLkVyMIjS4oIaLsbpOizjdA1AJOw335VKUoDBDiphQmIiFrWlhtLYUs5UQBjJPbWelKAUpSgFKUoBSlKAUpSgFKUoBSlKAUpSgFKUoBSlKAUpSgFKUoBSlKAUpSgFKUoBSlKAUpSgFKUoBSlKAUpSgFKUoBSlKAUpSgFKUoBSlKAUpSgFKUoBSlKAUpSgFKUoD/2Q==;" parent="1" vertex="1">
          <mxGeometry x="1390" y="1620" width="285.66" height="287.5" as="geometry" />
        </mxCell>
        <mxCell id="RFXgCNUUxJCp-3ueJ_de-1" value="Mavis 功耗问题排查" style="shape=partialRectangle;whiteSpace=wrap;html=1;left=0;right=0;fillColor=none;fontSize=40;fontStyle=1;fontColor=#FF0000;" parent="1" vertex="1">
          <mxGeometry x="960" y="140" width="610" height="70" as="geometry" />
        </mxCell>
        <mxCell id="RFXgCNUUxJCp-3ueJ_de-2" value="摄像头" style="rounded=1;whiteSpace=wrap;html=1;" parent="1" vertex="1">
          <mxGeometry x="1130" y="630" width="90" height="45" as="geometry" />
        </mxCell>
        <mxCell id="RFXgCNUUxJCp-3ueJ_de-3" value="ukui-volume-control-applet" style="rounded=1;whiteSpace=wrap;html=1;" parent="1" vertex="1">
          <mxGeometry x="1230" y="630" width="90" height="45" as="geometry" />
        </mxCell>
        <mxCell id="RFXgCNUUxJCp-3ueJ_de-4" value="ukui-power-manager-tray" style="rounded=1;whiteSpace=wrap;html=1;" parent="1" vertex="1">
          <mxGeometry x="1330" y="630" width="90" height="45" as="geometry" />
        </mxCell>
        <mxCell id="RFXgCNUUxJCp-3ueJ_de-6" value="ukui-flash-disk" style="rounded=1;whiteSpace=wrap;html=1;" parent="1" vertex="1">
          <mxGeometry x="1430" y="630" width="90" height="45" as="geometry" />
        </mxCell>
        <mxCell id="RFXgCNUUxJCp-3ueJ_de-8" value="ukui-screensaver" style="rounded=1;whiteSpace=wrap;html=1;" parent="1" vertex="1">
          <mxGeometry x="730" y="577.5" width="90" height="45" as="geometry" />
        </mxCell>
        <mxCell id="RFXgCNUUxJCp-3ueJ_de-9" value="ukui-trayapp-keyboard" style="rounded=1;whiteSpace=wrap;html=1;" parent="1" vertex="1">
          <mxGeometry x="830" y="577.5" width="90" height="45" as="geometry" />
        </mxCell>
        <mxCell id="RFXgCNUUxJCp-3ueJ_de-10" value="touch" style="rounded=1;whiteSpace=wrap;html=1;" parent="1" vertex="1">
          <mxGeometry x="930" y="577.5" width="90" height="45" as="geometry" />
        </mxCell>
        <mxCell id="RFXgCNUUxJCp-3ueJ_de-11" value="Motor-Service" style="rounded=1;whiteSpace=wrap;html=1;" parent="1" vertex="1">
          <mxGeometry x="1030" y="577.5" width="90" height="45" as="geometry" />
        </mxCell>
        <mxCell id="RFXgCNUUxJCp-3ueJ_de-12" value="mdm-montior" style="rounded=1;whiteSpace=wrap;html=1;" parent="1" vertex="1">
          <mxGeometry x="1130" y="577.5" width="90" height="45" as="geometry" />
        </mxCell>
        <mxCell id="RFXgCNUUxJCp-3ueJ_de-13" value="mdm-defender&lt;br&gt;mdm-agent&lt;br&gt;mdm-cmd" style="rounded=1;whiteSpace=wrap;html=1;" parent="1" vertex="1">
          <mxGeometry x="1230" y="577.5" width="90" height="45" as="geometry" />
        </mxCell>
        <mxCell id="RFXgCNUUxJCp-3ueJ_de-14" value="ukui-upower" style="rounded=1;whiteSpace=wrap;html=1;" parent="1" vertex="1">
          <mxGeometry x="1330" y="577.5" width="90" height="45" as="geometry" />
        </mxCell>
        <mxCell id="RFXgCNUUxJCp-3ueJ_de-15" value="imwhell" style="rounded=1;whiteSpace=wrap;html=1;" parent="1" vertex="1">
          <mxGeometry x="1430" y="577.5" width="90" height="45" as="geometry" />
        </mxCell>
        <mxCell id="RFXgCNUUxJCp-3ueJ_de-16" value="kylin-update-manager" style="rounded=1;whiteSpace=wrap;html=1;" parent="1" vertex="1">
          <mxGeometry x="730" y="520" width="90" height="45" as="geometry" />
        </mxCell>
        <mxCell id="RFXgCNUUxJCp-3ueJ_de-17" value="focus-mode" style="rounded=1;whiteSpace=wrap;html=1;" parent="1" vertex="1">
          <mxGeometry x="830" y="520" width="90" height="45" as="geometry" />
        </mxCell>
        <mxCell id="RFXgCNUUxJCp-3ueJ_de-18" value="消息通知" style="rounded=1;whiteSpace=wrap;html=1;" parent="1" vertex="1">
          <mxGeometry x="930" y="520" width="90" height="45" as="geometry" />
        </mxCell>
        <mxCell id="RFXgCNUUxJCp-3ueJ_de-19" value="用户手册" style="rounded=1;whiteSpace=wrap;html=1;" parent="1" vertex="1">
          <mxGeometry x="1030" y="520" width="90" height="45" as="geometry" />
        </mxCell>
        <mxCell id="RFXgCNUUxJCp-3ueJ_de-20" value="安全" style="rounded=1;whiteSpace=wrap;html=1;" parent="1" vertex="1">
          <mxGeometry x="1130" y="520" width="90" height="45" as="geometry" />
        </mxCell>
        <mxCell id="RFXgCNUUxJCp-3ueJ_de-21" value="输入法" style="rounded=1;whiteSpace=wrap;html=1;" parent="1" vertex="1">
          <mxGeometry x="1230" y="520" width="90" height="45" as="geometry" />
        </mxCell>
        <mxCell id="RFXgCNUUxJCp-3ueJ_de-22" value="fticx" style="rounded=1;whiteSpace=wrap;html=1;" parent="1" vertex="1">
          <mxGeometry x="1330" y="520" width="90" height="45" as="geometry" />
        </mxCell>
        <mxCell id="RFXgCNUUxJCp-3ueJ_de-23" value="osd" style="rounded=1;whiteSpace=wrap;html=1;" parent="1" vertex="1">
          <mxGeometry x="1430" y="520" width="90" height="45" as="geometry" />
        </mxCell>
        <mxCell id="RFXgCNUUxJCp-3ueJ_de-24" value="锁屏" style="rounded=1;whiteSpace=wrap;html=1;" parent="1" vertex="1">
          <mxGeometry x="1760" y="1265" width="90" height="45" as="geometry" />
        </mxCell>
        <mxCell id="RFXgCNUUxJCp-3ueJ_de-25" value="session" style="rounded=1;whiteSpace=wrap;html=1;" parent="1" vertex="1">
          <mxGeometry x="1660" y="1265" width="90" height="45" as="geometry" />
        </mxCell>
        <mxCell id="RFXgCNUUxJCp-3ueJ_de-26" value="电源管理" style="rounded=1;whiteSpace=wrap;html=1;" parent="1" vertex="1">
          <mxGeometry x="1560" y="1265" width="90" height="45" as="geometry" />
        </mxCell>
        <mxCell id="RFXgCNUUxJCp-3ueJ_de-27" value="软件商店" style="rounded=1;whiteSpace=wrap;html=1;" parent="1" vertex="1">
          <mxGeometry x="1460" y="1265" width="90" height="45" as="geometry" />
        </mxCell>
        <mxCell id="RFXgCNUUxJCp-3ueJ_de-28" value="摄像头" style="rounded=1;whiteSpace=wrap;html=1;" parent="1" vertex="1">
          <mxGeometry x="1760" y="1327.5" width="90" height="45" as="geometry" />
        </mxCell>
        <mxCell id="RFXgCNUUxJCp-3ueJ_de-29" value="升级管理器" style="rounded=1;whiteSpace=wrap;html=1;" parent="1" vertex="1">
          <mxGeometry x="1660" y="1327.5" width="90" height="45" as="geometry" />
        </mxCell>
        <mxCell id="RFXgCNUUxJCp-3ueJ_de-30" value="dbus" style="rounded=1;whiteSpace=wrap;html=1;" parent="1" vertex="1">
          <mxGeometry x="1560" y="1327.5" width="90" height="45" as="geometry" />
        </mxCell>
        <mxCell id="RFXgCNUUxJCp-3ueJ_de-31" value="蓝牙" style="rounded=1;whiteSpace=wrap;html=1;" parent="1" vertex="1">
          <mxGeometry x="1460" y="1327.5" width="90" height="45" as="geometry" />
        </mxCell>
        <mxCell id="RFXgCNUUxJCp-3ueJ_de-32" value="用户手册后台" style="rounded=1;whiteSpace=wrap;html=1;" parent="1" vertex="1">
          <mxGeometry x="1760" y="1385" width="90" height="45" as="geometry" />
        </mxCell>
        <mxCell id="RFXgCNUUxJCp-3ueJ_de-33" value="u盘管理工具后台" style="rounded=1;whiteSpace=wrap;html=1;" parent="1" vertex="1">
          <mxGeometry x="1660" y="1385" width="90" height="45" as="geometry" />
        </mxCell>
        <mxCell id="RFXgCNUUxJCp-3ueJ_de-34" value="usd后台" style="rounded=1;whiteSpace=wrap;html=1;" parent="1" vertex="1">
          <mxGeometry x="1560" y="1385" width="90" height="45" as="geometry" />
        </mxCell>
        <mxCell id="RFXgCNUUxJCp-3ueJ_de-35" value="控制面板后台" style="rounded=1;whiteSpace=wrap;html=1;" parent="1" vertex="1">
          <mxGeometry x="1460" y="1385" width="90" height="45" as="geometry" />
        </mxCell>
        <mxCell id="RFXgCNUUxJCp-3ueJ_de-37" value="x11" style="rounded=1;whiteSpace=wrap;html=1;" parent="1" vertex="1">
          <mxGeometry x="910" y="1267.5" width="90" height="45" as="geometry" />
        </mxCell>
        <mxCell id="RFXgCNUUxJCp-3ueJ_de-38" value="touch" style="rounded=1;whiteSpace=wrap;html=1;" parent="1" vertex="1">
          <mxGeometry x="810" y="1267.5" width="90" height="45" as="geometry" />
        </mxCell>
        <mxCell id="RFXgCNUUxJCp-3ueJ_de-39" value="滚轮" style="rounded=1;whiteSpace=wrap;html=1;" parent="1" vertex="1">
          <mxGeometry x="700" y="1265" width="90" height="45" as="geometry" />
        </mxCell>
        <mxCell id="RFXgCNUUxJCp-3ueJ_de-40" value="wayland" style="rounded=1;whiteSpace=wrap;html=1;" parent="1" vertex="1">
          <mxGeometry x="910" y="1322.5" width="90" height="45" as="geometry" />
        </mxCell>
        <mxCell id="RFXgCNUUxJCp-3ueJ_de-41" value="lightdm" style="rounded=1;whiteSpace=wrap;html=1;" parent="1" vertex="1">
          <mxGeometry x="810" y="1327.5" width="90" height="45" as="geometry" />
        </mxCell>
        <mxCell id="RFXgCNUUxJCp-3ueJ_de-42" value="gdm" style="rounded=1;whiteSpace=wrap;html=1;" parent="1" vertex="1">
          <mxGeometry x="700" y="1327.5" width="90" height="45" as="geometry" />
        </mxCell>
        <mxCell id="RFXgCNUUxJCp-3ueJ_de-43" value="x11" style="rounded=1;whiteSpace=wrap;html=1;" parent="1" vertex="1">
          <mxGeometry x="910" y="1385" width="90" height="45" as="geometry" />
        </mxCell>
        <mxCell id="RFXgCNUUxJCp-3ueJ_de-44" value="XOrg" style="rounded=1;whiteSpace=wrap;html=1;" parent="1" vertex="1">
          <mxGeometry x="810" y="1385" width="90" height="45" as="geometry" />
        </mxCell>
        <mxCell id="RFXgCNUUxJCp-3ueJ_de-45" value="X Server" style="rounded=1;whiteSpace=wrap;html=1;" parent="1" vertex="1">
          <mxGeometry x="700" y="1385" width="90" height="45" as="geometry" />
        </mxCell>
        <mxCell id="RFXgCNUUxJCp-3ueJ_de-64" value="" style="rounded=0;whiteSpace=wrap;html=1;fillColor=#f5f5f5;fontColor=#333333;strokeColor=#666666;" parent="1" vertex="1">
          <mxGeometry x="1880" y="350" width="520" height="320" as="geometry" />
        </mxCell>
        <mxCell id="RFXgCNUUxJCp-3ueJ_de-65" value="静置" style="rounded=0;whiteSpace=wrap;html=1;" parent="1" vertex="1">
          <mxGeometry x="1920" y="377" width="120" height="60" as="geometry" />
        </mxCell>
        <mxCell id="RFXgCNUUxJCp-3ueJ_de-66" value="其他" style="rounded=0;whiteSpace=wrap;html=1;" parent="1" vertex="1">
          <mxGeometry x="2240" y="540" width="120" height="60" as="geometry" />
        </mxCell>
        <mxCell id="RFXgCNUUxJCp-3ueJ_de-67" value="打开摄像头" style="rounded=0;whiteSpace=wrap;html=1;" parent="1" vertex="1">
          <mxGeometry x="2080" y="540" width="120" height="60" as="geometry" />
        </mxCell>
        <mxCell id="RFXgCNUUxJCp-3ueJ_de-68" value="打开安卓兼容" style="rounded=0;whiteSpace=wrap;html=1;" parent="1" vertex="1">
          <mxGeometry x="1920" y="540" width="120" height="60" as="geometry" />
        </mxCell>
        <mxCell id="RFXgCNUUxJCp-3ueJ_de-69" value="播放在线视频" style="rounded=0;whiteSpace=wrap;html=1;" parent="1" vertex="1">
          <mxGeometry x="2240" y="377" width="120" height="60" as="geometry" />
        </mxCell>
        <mxCell id="RFXgCNUUxJCp-3ueJ_de-70" value="播放本地视频" style="rounded=0;whiteSpace=wrap;html=1;" parent="1" vertex="1">
          <mxGeometry x="2080" y="377" width="120" height="60" as="geometry" />
        </mxCell>
        <mxCell id="RFXgCNUUxJCp-3ueJ_de-71" value="电源管理" style="rounded=0;whiteSpace=wrap;html=1;" parent="1" vertex="1">
          <mxGeometry x="1920" y="437" width="120" height="23" as="geometry" />
        </mxCell>
        <mxCell id="RFXgCNUUxJCp-3ueJ_de-72" value="电源管理" style="rounded=0;whiteSpace=wrap;html=1;" parent="1" vertex="1">
          <mxGeometry x="2240" y="600" width="120" height="23" as="geometry" />
        </mxCell>
        <mxCell id="RFXgCNUUxJCp-3ueJ_de-73" value="摄像头" style="rounded=0;whiteSpace=wrap;html=1;" parent="1" vertex="1">
          <mxGeometry x="2080" y="600" width="120" height="23" as="geometry" />
        </mxCell>
        <mxCell id="RFXgCNUUxJCp-3ueJ_de-74" value="安卓兼容" style="rounded=0;whiteSpace=wrap;html=1;" parent="1" vertex="1">
          <mxGeometry x="1920" y="600" width="120" height="23" as="geometry" />
        </mxCell>
        <mxCell id="RFXgCNUUxJCp-3ueJ_de-75" value="浏览器" style="rounded=0;whiteSpace=wrap;html=1;" parent="1" vertex="1">
          <mxGeometry x="2240" y="437" width="120" height="23" as="geometry" />
        </mxCell>
        <mxCell id="RFXgCNUUxJCp-3ueJ_de-76" value="麒麟影音" style="rounded=0;whiteSpace=wrap;html=1;" parent="1" vertex="1">
          <mxGeometry x="2080" y="437" width="120" height="23" as="geometry" />
        </mxCell>
        <mxCell id="RFXgCNUUxJCp-3ueJ_de-77" value="模块指责划分" style="shape=partialRectangle;whiteSpace=wrap;html=1;left=0;right=0;fillColor=#f8cecc;fontStyle=1;fontSize=23;strokeColor=#b85450;" parent="1" vertex="1">
          <mxGeometry x="2015" y="280" width="250" height="50" as="geometry" />
        </mxCell>
        <mxCell id="RFXgCNUUxJCp-3ueJ_de-78" value="定制处理" style="shape=partialRectangle;whiteSpace=wrap;html=1;left=0;right=0;fillColor=#f8cecc;fontStyle=1;fontSize=23;strokeColor=#b85450;" parent="1" vertex="1">
          <mxGeometry x="2015" y="840" width="300" height="50" as="geometry" />
        </mxCell>
        <mxCell id="RFXgCNUUxJCp-3ueJ_de-79" value="cpu默认为平衡模式" style="rounded=1;whiteSpace=wrap;html=1;strokeColor=#1A1A1A;" parent="1" vertex="1">
          <mxGeometry x="1960" y="917" width="120" height="60" as="geometry" />
        </mxCell>
        <mxCell id="RFXgCNUUxJCp-3ueJ_de-80" value="默认使用powertop --auto-tune 降低功耗" style="rounded=1;whiteSpace=wrap;html=1;strokeColor=#1A1A1A;" parent="1" vertex="1">
          <mxGeometry x="2110" y="917" width="120" height="60" as="geometry" />
        </mxCell>
        <mxCell id="RFXgCNUUxJCp-3ueJ_de-81" value="ukui-power-manager-tray裁剪" style="rounded=1;whiteSpace=wrap;html=1;strokeColor=#1A1A1A;" parent="1" vertex="1">
          <mxGeometry x="2260" y="917" width="120" height="60" as="geometry" />
        </mxCell>
        <mxCell id="RFXgCNUUxJCp-3ueJ_de-82" value="默认裁剪acpid" style="rounded=1;whiteSpace=wrap;html=1;strokeColor=#1A1A1A;" parent="1" vertex="1">
          <mxGeometry x="1960" y="1000" width="120" height="60" as="geometry" />
        </mxCell>
        <mxCell id="RFXgCNUUxJCp-3ueJ_de-83" value="upower 低功耗" style="rounded=1;whiteSpace=wrap;html=1;strokeColor=#1A1A1A;" parent="1" vertex="1">
          <mxGeometry x="2110" y="1000" width="120" height="60" as="geometry" />
        </mxCell>
        <mxCell id="RFXgCNUUxJCp-3ueJ_de-84" value="默认关闭&lt;span style=&quot;font-family: &amp;#34;menlo&amp;#34; ; font-size: 11px&quot;&gt;avahi-daemon&lt;br&gt;&lt;/span&gt;" style="rounded=1;whiteSpace=wrap;html=1;strokeColor=#1A1A1A;" parent="1" vertex="1">
          <mxGeometry x="2260" y="1000" width="120" height="60" as="geometry" />
        </mxCell>
        <mxCell id="RFXgCNUUxJCp-3ueJ_de-85" value="默认关闭vpn等服务" style="rounded=1;whiteSpace=wrap;html=1;strokeColor=#1A1A1A;" parent="1" vertex="1">
          <mxGeometry x="1960" y="1085.5" width="120" height="60" as="geometry" />
        </mxCell>
        <mxCell id="RFXgCNUUxJCp-3ueJ_de-86" value="默认关闭软件商店后台" style="rounded=1;whiteSpace=wrap;html=1;strokeColor=#1A1A1A;" parent="1" vertex="1">
          <mxGeometry x="2110" y="1085.5" width="120" height="60" as="geometry" />
        </mxCell>
        <mxCell id="RFXgCNUUxJCp-3ueJ_de-87" value="默认开始菜单不自启动" style="rounded=1;whiteSpace=wrap;html=1;strokeColor=#1A1A1A;" parent="1" vertex="1">
          <mxGeometry x="2260" y="1085.5" width="120" height="60" as="geometry" />
        </mxCell>
        <mxCell id="RFXgCNUUxJCp-3ueJ_de-88" value="日历与任务栏分离" style="rounded=1;whiteSpace=wrap;html=1;strokeColor=#1A1A1A;" parent="1" vertex="1">
          <mxGeometry x="1960" y="1168.5" width="120" height="60" as="geometry" />
        </mxCell>
        <mxCell id="RFXgCNUUxJCp-3ueJ_de-89" value="默认用户手册不自启动" style="rounded=1;whiteSpace=wrap;html=1;strokeColor=#1A1A1A;" parent="1" vertex="1">
          <mxGeometry x="2110" y="1168.5" width="120" height="60" as="geometry" />
        </mxCell>
        <mxCell id="RFXgCNUUxJCp-3ueJ_de-90" value="默认关闭安全" style="rounded=1;whiteSpace=wrap;html=1;strokeColor=#1A1A1A;" parent="1" vertex="1">
          <mxGeometry x="2260" y="1168.5" width="120" height="60" as="geometry" />
        </mxCell>
        <mxCell id="RFXgCNUUxJCp-3ueJ_de-91" value="&lt;span style=&quot;color: rgb(50 , 50 , 50) ; font-size: 13px ; background-color: rgba(255 , 255 , 255 , 0.01)&quot;&gt;待更新的包列表&lt;/span&gt;" style="rounded=1;whiteSpace=wrap;html=1;fontSize=23;fontColor=#333333;fillColor=#f5f5f5;strokeColor=#666666;" parent="1" vertex="1">
          <mxGeometry x="1950" y="1382.5" width="350" height="40" as="geometry" />
        </mxCell>
        <mxCell id="RFXgCNUUxJCp-3ueJ_de-92" value="&lt;font color=&quot;#323232&quot; size=&quot;2&quot;&gt;&lt;span style=&quot;background-color: rgba(255 , 255 , 255 , 0.01)&quot;&gt;回退异常模块&lt;/span&gt;&lt;/font&gt;" style="rounded=1;whiteSpace=wrap;html=1;fontSize=23;fontColor=#333333;fillColor=#f5f5f5;strokeColor=#666666;" parent="1" vertex="1">
          <mxGeometry x="1950" y="1522.5" width="350" height="40" as="geometry" />
        </mxCell>
        <mxCell id="RFXgCNUUxJCp-3ueJ_de-93" value="&lt;span style=&quot;color: rgb(50 , 50 , 50) ; font-size: 13px ; background-color: rgba(255 , 255 , 255 , 0.01)&quot;&gt;发布的周版本ISO&lt;/span&gt;" style="rounded=1;whiteSpace=wrap;html=1;fontSize=23;fontColor=#333333;fillColor=#f5f5f5;strokeColor=#666666;" parent="1" vertex="1">
          <mxGeometry x="1950" y="1662.5" width="350" height="40" as="geometry" />
        </mxCell>
        <mxCell id="RFXgCNUUxJCp-3ueJ_de-94" value="" style="shape=singleArrow;direction=south;whiteSpace=wrap;html=1;fontSize=23;fontColor=#CC6600;" parent="1" vertex="1">
          <mxGeometry x="2030" y="1446.5" width="60" height="69" as="geometry" />
        </mxCell>
        <mxCell id="RFXgCNUUxJCp-3ueJ_de-95" value="" style="shape=singleArrow;direction=south;whiteSpace=wrap;html=1;fontSize=23;fontColor=#CC6600;" parent="1" vertex="1">
          <mxGeometry x="2030" y="1578" width="60" height="69" as="geometry" />
        </mxCell>
        <mxCell id="RFXgCNUUxJCp-3ueJ_de-96" value="&lt;h1 style=&quot;font-size: 18px&quot;&gt;对比基线版本进行测试&lt;/h1&gt;&lt;p&gt;&lt;span style=&quot;color: rgb(50 , 50 , 50) ; font-size: 13px ; text-align: center ; background-color: rgba(255 , 255 , 255 , 0.01)&quot;&gt;基线版本：在功耗达标之前，默认上一版本为基线版本&lt;/span&gt;&lt;br&gt;&lt;/p&gt;" style="text;html=1;strokeColor=none;fillColor=none;spacing=5;spacingTop=-20;whiteSpace=wrap;overflow=hidden;rounded=0;fontSize=15;fontColor=#4D4D4D;" parent="1" vertex="1">
          <mxGeometry x="2110" y="1436" width="280" height="86.5" as="geometry" />
        </mxCell>
        <mxCell id="RFXgCNUUxJCp-3ueJ_de-97" value="&lt;h1 style=&quot;font-size: 18px&quot;&gt;无异常&lt;/h1&gt;&lt;p&gt;&lt;span style=&quot;color: rgb(50 , 50 , 50) ; font-size: 13px ; text-align: center ; background-color: rgba(255 , 255 , 255 , 0.01)&quot;&gt;若回退该模块后导致版本异常则为此模块的严重问题，该改动如有新的依赖关系或与其他组件强相关，必须在changelog的影响域中说明。&lt;/span&gt;&lt;br&gt;&lt;/p&gt;" style="text;html=1;strokeColor=none;fillColor=none;spacing=5;spacingTop=-20;whiteSpace=wrap;overflow=hidden;rounded=0;fontSize=15;fontColor=#4D4D4D;" parent="1" vertex="1">
          <mxGeometry x="2120" y="1562.5" width="280" height="100" as="geometry" />
        </mxCell>
        <mxCell id="RFXgCNUUxJCp-3ueJ_de-98" value="组件功耗异常包处理流程" style="shape=partialRectangle;whiteSpace=wrap;html=1;left=0;right=0;fillColor=#f8cecc;fontStyle=1;fontSize=23;strokeColor=#b85450;" parent="1" vertex="1">
          <mxGeometry x="1975" y="1312.5" width="300" height="50" as="geometry" />
        </mxCell>
        <mxCell id="3lbqOhOZl-jMYZM-DUwX-1" value="" style="rounded=0;whiteSpace=wrap;html=1;strokeColor=#36393d;shadow=0;fillColor=#f9f7ed;" parent="1" vertex="1">
          <mxGeometry x="1585" y="311" width="235" height="289" as="geometry" />
        </mxCell>
        <mxCell id="3lbqOhOZl-jMYZM-DUwX-2" value="&lt;h1&gt;腾讯应用&lt;/h1&gt;&lt;p&gt;腾讯应用&lt;/p&gt;" style="text;html=1;strokeColor=none;fillColor=none;spacing=5;spacingTop=-20;whiteSpace=wrap;overflow=hidden;rounded=0;" parent="1" vertex="1">
          <mxGeometry x="1595" y="500" width="150" height="120" as="geometry" />
        </mxCell>
        <mxCell id="3lbqOhOZl-jMYZM-DUwX-3" value="txeduupplatform-runtunme" style="rounded=1;whiteSpace=wrap;html=1;shadow=0;strokeColor=#000000;" parent="1" vertex="1">
          <mxGeometry x="1605" y="435" width="120" height="60" as="geometry" />
        </mxCell>
        <mxCell id="3lbqOhOZl-jMYZM-DUwX-4" value="txedu" style="rounded=1;whiteSpace=wrap;html=1;shadow=0;strokeColor=#000000;" parent="1" vertex="1">
          <mxGeometry x="1605" y="357.5" width="120" height="60" as="geometry" />
        </mxCell>
      </root>
    </mxGraphModel>
  </diagram>
</mxfile>
